<?xml version="1.0" encoding="UTF-8" standalone="no"?>
<!-- Created with Inkscape (http://www.inkscape.org/) -->

<svg
   xmlns:dc="http://purl.org/dc/elements/1.1/"
   xmlns:cc="http://creativecommons.org/ns#"
   xmlns:rdf="http://www.w3.org/1999/02/22-rdf-syntax-ns#"
   xmlns:svg="http://www.w3.org/2000/svg"
   xmlns="http://www.w3.org/2000/svg"
   xmlns:sodipodi="http://sodipodi.sourceforge.net/DTD/sodipodi-0.dtd"
   xmlns:inkscape="http://www.inkscape.org/namespaces/inkscape"
   sodipodi:docname="logo_ac_lines2_automaticaText.svg"
   viewBox="0 0 637.79529 1062.9921"
   height="30cm"
   width="18cm"
   inkscape:version="0.91 r13725"
   version="1.1"
   id="svg2">
  <metadata
     id="metadata8">
    <rdf:RDF>
      <cc:Work
         rdf:about="">
        <dc:format>image/svg+xml</dc:format>
        <dc:type
           rdf:resource="http://purl.org/dc/dcmitype/StillImage" />
        <dc:title />
      </cc:Work>
    </rdf:RDF>
  </metadata>
  <defs
     id="defs6" />
  <sodipodi:namedview
     inkscape:current-layer="layer2"
     inkscape:window-maximized="1"
     inkscape:window-y="-8"
     inkscape:window-x="-8"
     inkscape:cy="151.16274"
     inkscape:cx="309.24348"
     inkscape:zoom="1.8414036"
     showgrid="false"
     id="namedview4"
     inkscape:window-height="1017"
     inkscape:window-width="1920"
     inkscape:pageshadow="2"
     inkscape:pageopacity="0"
     guidetolerance="10"
     gridtolerance="10"
     objecttolerance="10"
     borderopacity="1"
     bordercolor="#666666"
     pagecolor="#ffffff"
     units="cm"
     inkscape:document-units="mm" />
  <g
     inkscape:groupmode="layer"
     id="layer2"
     inkscape:label="Layer 2"
     style="display:inline"
     transform="translate(0,700.49213)">
    <path
       inkscape:connector-curvature="0"
       id="path3378"
       style="font-style:normal;font-variant:normal;font-weight:bold;font-stretch:normal;font-size:medium;line-height:125%;font-family:'Segoe Print';-inkscape-font-specification:'Segoe Print Bold';letter-spacing:0px;word-spacing:0px;fill:#000000;fill-opacity:1;stroke:none;stroke-width:1px;stroke-linecap:butt;stroke-linejoin:miter;stroke-opacity:1"
       d="m 561.31293,350.21771 0.10468,0.23621 0.14801,0.29846 0.19134,0.36071 0.23468,0.42298 0.27802,0.48523 0.32135,0.54748 0.36468,0.60974 0.40802,0.672 0.40863,0.65949 0.37628,0.58197 0.34394,0.50445 0.31158,0.42694 0.27924,0.34943 0.24688,0.27191 0.21454,0.1944 0.18219,0.11688 0.16357,0.0778 0.15869,0.0674 0.15381,0.0571 0.14893,0.0467 0.14404,0.0363 0.13916,0.0259 0.13428,0.0156 0.12939,0.005 0.18036,-0.0119 0.18952,-0.0357 0.19866,-0.0595 0.20783,-0.0833 0.21698,-0.10711 0.22614,-0.13092 0.23529,-0.15472 0.24444,-0.17853 0.22888,-0.19592 0.19837,-0.19715 0.16785,-0.19836 0.13733,-0.19959 0.10681,-0.2008 0.0763,-0.20203 0.0458,-0.20325 0.0153,-0.20447 -0.0766,-0.29511 -0.2298,-0.50445 -0.38299,-0.71381 -0.5362,-0.92315 -0.68939,-1.13251 -0.84259,-1.34186 -0.99579,-1.5512 -1.14899,-1.76056 -0.66162,-1.01929 -0.64697,-1.01684 -0.63233,-1.01441 -0.61767,-1.01196 -0.60303,-1.00952 -0.58838,-1.00708 -0.57373,-1.00464 -0.55908,-1.0022 -1.05438,-1.91559 -0.94635,-1.7038 -0.83832,-1.492 -0.73028,-1.28021 -0.62226,-1.06842 -0.51422,-0.85663 -0.40619,-0.64484 -0.29816,-0.43304 -0.24963,-0.31128 -0.25086,-0.26978 -0.25207,-0.22827 -0.2533,-0.18677 -0.25451,-0.14526 -0.25574,-0.10376 -0.25696,-0.0623 -0.25818,-0.0208 -0.40069,0.0134 -0.37201,0.0403 -0.34332,0.0671 -0.31464,0.094 -0.28595,0.12085 -0.25726,0.1477 -0.22858,0.17456 -0.19989,0.20142 -0.087,0.0803 -0.0754,0.10407 -0.0638,0.12787 -0.0522,0.15167 -0.0406,0.17547 -0.029,0.19928 -0.0174,0.22308 -0.006,0.24689 0.002,0.18585 0.006,0.1767 0.0107,0.16754 0.015,0.15839 0.0192,0.14923 0.0235,0.14007 0.0278,0.13092 0.032,0.12177 -0.86914,2.62512 -0.82031,2.42615 -0.77148,2.22717 -0.72266,2.0282 -0.67382,1.82923 -0.625,1.63025 -0.57618,1.43127 -0.52734,1.2323 -0.50781,1.08917 -0.50781,1.01166 -0.50782,0.93414 -0.50781,0.85663 -0.50781,0.77912 -0.50781,0.7016 -0.50782,0.62408 -0.50781,0.54657 -0.24139,0.24353 -0.21637,0.22278 -0.19135,0.20202 -0.16632,0.18128 -0.1413,0.16052 -0.11627,0.13977 -0.0912,0.11901 -0.0662,0.0983 -0.0549,0.0915 -0.0476,0.0989 -0.0403,0.1062 -0.0329,0.11353 -0.0256,0.12085 -0.0183,0.12817 -0.011,0.1355 -0.004,0.14282 0.0122,0.26306 0.0366,0.25208 0.061,0.24109 0.0855,0.2301 0.10987,0.21912 0.13427,0.20813 0.15869,0.19714 0.18311,0.18616 0.19989,0.17395 0.20905,0.15076 0.2182,0.12756 0.22735,0.10437 0.23651,0.0812 0.24567,0.058 0.25482,0.0348 0.26398,0.0116 0.37201,-0.0269 0.37384,-0.0806 0.37567,-0.13428 0.37751,-0.18799 0.37933,-0.2417 0.38117,-0.29541 0.38299,-0.34912 0.38483,-0.40283 0.37842,-0.44983 0.37353,-0.49011 0.36865,-0.5304 0.36377,-0.57068 0.35889,-0.61096 0.354,-0.65125 0.34912,-0.69153 0.34424,-0.73181 0.31586,-0.71075 0.27374,-0.62836 0.23163,-0.54596 0.18952,-0.46356 0.1474,-0.38116 0.10528,-0.29877 0.0632,-0.21637 0.0211,-0.13397 0.002,-0.0183 0.005,-0.0159 0.008,-0.0134 0.0107,-0.011 0.0137,-0.009 0.0168,-0.006 0.0198,-0.004 0.0229,-10e-4 0.30426,0.0116 0.38544,0.0348 0.46661,0.058 0.54779,0.0812 0.62897,0.10437 0.71014,0.12756 0.79132,0.15076 0.8725,0.17395 0.88593,0.18494 0.84137,0.18371 0.79681,0.1825 0.75226,0.18127 0.70771,0.18006 0.66314,0.17883 0.61859,0.17761 0.57404,0.17639 0.13946,0.0412 0.1352,0.0357 0.13092,0.0302 0.12664,0.0247 0.12238,0.0192 0.1181,0.0137 0.11383,0.008 0.10956,0.003 0.18494,-0.005 0.17395,-0.0165 0.16296,-0.0275 0.15198,-0.0385 0.14099,-0.0494 0.13001,-0.0604 0.11902,-0.0714 0.10803,-0.0824 10e-6,0 0,-10e-6 10e-6,0 10e-6,0 0,-1e-5 1e-5,0 0,-10e-6 z m -11.25,-5.97656 0.14587,-0.38025 0.20325,-0.56457 0.26062,-0.7489 0.31799,-0.93323 0.37537,-1.11756 0.43274,-1.30188 0.49011,-1.48621 0.54748,-1.67053 0.0516,-0.15381 0.0473,-0.13916 0.043,-0.12451 0.0388,-0.10986 0.0345,-0.0952 0.0302,-0.0806 0.0259,-0.0659 0.0217,-0.0513 0.69336,1.31836 0.69336,1.31836 0.69336,1.31836 0.69336,1.31836 0.69336,1.31836 0.69336,1.31836 0.69336,1.31836 0.69336,1.31836 -0.30853,-0.0531 -0.31037,-0.0519 -0.31219,-0.0507 -0.31403,-0.0494 -0.31585,-0.0482 -0.31769,-0.047 -0.31952,-0.0458 -0.32135,-0.0446 -0.25635,-0.0342 -0.33935,-0.0537 -0.42237,-0.0732 -0.50537,-0.0928 -0.58838,-0.1123 -0.67139,-0.13184 -0.75439,-0.15138 -0.8374,-0.17091 -0.21484,-0.0433 -0.21485,-0.0421 -0.21484,-0.0409 -0.21485,-0.0397 -0.21484,-0.0385 -0.21484,-0.0372 -0.21485,-0.036 z"
       sodipodi:nodetypes="cccccccccccccccccccccccccccccccccccccccccccccccccccccccccccccccccccccccccccccccccccccccccccccccccccccccccccccccccccccccccccccccccccccccccccccccccccccccccccccccccccccccccccccccccccccccccccccccccccccccccccccccccccccccccccccccccccccccccccccccccccccccccccccccccccccccccc" />
    <path
       inkscape:connector-curvature="0"
       id="path3380"
       style="font-style:normal;font-variant:normal;font-weight:bold;font-stretch:normal;font-size:medium;line-height:125%;font-family:'Segoe Print';-inkscape-font-specification:'Segoe Print Bold';letter-spacing:0px;word-spacing:0px;fill:#000000;fill-opacity:1;stroke:none;stroke-width:1px;stroke-linecap:butt;stroke-linejoin:miter;stroke-opacity:1"
       d="m 522.2309,349.37787 0.47821,0.83252 0.49713,0.78857 0.51605,0.74463 0.53497,0.70069 0.5539,0.65674 0.57281,0.61279 0.59174,0.56885 0.61065,0.5249 0.61646,0.47149 0.61889,0.40863 0.62134,0.34577 0.62378,0.28289 0.62622,0.22003 0.62866,0.15717 0.63111,0.0943 0.63354,0.0314 0.37659,-0.0247 0.37781,-0.0742 0.37903,-0.12359 0.38024,-0.17304 0.38148,-0.22247 0.38269,-0.27191 0.38391,-0.32135 0.38513,-0.37079 0.35706,-0.42206 0.30945,-0.47516 0.26184,-0.52826 0.21423,-0.58135 0.16663,-0.63447 0.11901,-0.68756 0.0714,-0.74066 0.0238,-0.79376 -0.0183,-0.61798 -0.0549,-0.69184 -0.0916,-0.76568 -0.12817,-0.83954 -0.1648,-0.91339 -0.20141,-0.98724 -0.23804,-1.0611 -0.27466,-1.13495 -0.23804,-0.9378 -0.20629,-0.87982 -0.17456,-0.82184 -0.14282,-0.76386 -0.11109,-0.70587 -0.0793,-0.64788 -0.0476,-0.58991 -0.0159,-0.53192 -0.20905,-0.38452 -0.23651,-0.33326 -0.26397,-0.28198 -0.29145,-0.23071 -0.31891,-0.17945 -0.34637,-0.12817 -0.37384,-0.0769 -0.40131,-0.0256 -0.27588,0.0119 -0.26123,0.0357 -0.24658,0.0595 -0.23193,0.0833 -0.21729,0.10712 -0.20263,0.13092 -0.18799,0.15472 -0.17334,0.17853 -0.16022,0.18585 -0.13885,0.18647 -0.1175,0.18707 -0.0961,0.18768 -0.0748,0.1883 -0.0534,0.1889 -0.032,0.18952 -0.0107,0.19012 0.0153,0.36499 0.0458,0.40161 0.0763,0.43823 0.10681,0.47486 0.13733,0.51147 0.16784,0.5481 0.19837,0.58471 0.22888,0.62134 0.14313,0.4007 0.14618,0.44037 0.14923,0.48004 0.15228,0.51971 0.15534,0.55939 0.15838,0.59906 0.16144,0.63873 0.16449,0.67841 0.15106,0.66223 0.13092,0.59997 0.11078,0.53772 0.0906,0.47547 0.0705,0.4132 0.0504,0.35095 0.0302,0.2887 0.0101,0.22644 -0.0168,0.60883 -0.0504,0.52765 -0.0839,0.44647 -0.11749,0.3653 -0.15106,0.28411 -0.18463,0.20295 -0.2182,0.12176 -0.25177,0.0406 -0.44342,-0.051 -0.48065,-0.1529 -0.51789,-0.25482 -0.55511,-0.35675 -0.59235,-0.45868 -0.62958,-0.56061 -0.66681,-0.66253 -0.70404,-0.76447 -0.69122,-0.81787 -0.62836,-0.82275 -0.56549,-0.82764 -0.50262,-0.83252 -0.43976,-0.8374 -0.37689,-0.84229 -0.31403,-0.84717 -0.25116,-0.85205 -0.21668,-0.79895 -0.21057,-0.72693 -0.20447,-0.6549 -0.19836,-0.58289 -0.19226,-0.51086 -0.18616,-0.43885 -0.18005,-0.36682 -0.17395,-0.2948 -0.17975,-0.24261 -0.19744,-0.21027 -0.21515,-0.17792 -0.23285,-0.14556 -0.25055,-0.11322 -0.26825,-0.0809 -0.28595,-0.0485 -0.30365,-0.0162 -0.47607,0.0354 -0.4126,0.1062 -0.34912,0.177 -0.28565,0.24781 -0.22217,0.3186 -0.15869,0.3894 -0.0952,0.46021 -0.0317,0.531 0.005,0.0934 0.0156,0.11414 0.0259,0.13489 0.0363,0.15564 0.0467,0.17639 0.0571,0.19714 0.0674,0.2179 0.0778,0.23865 0.27008,0.87799 0.23407,0.90546 0.19806,0.93292 0.16204,0.96039 0.12604,0.98785 0.09,1.01532 0.054,1.04279 0.018,1.07025 -0.0269,1.20575 -0.0806,1.07818 -0.13428,0.95062 -0.18799,0.82306 -0.2417,0.6955 -0.29541,0.56793 -0.34912,0.44037 -0.40283,0.3128 -0.13275,0.0854 -0.11505,0.0903 -0.0974,0.0952 -0.0797,0.1001 -0.0619,0.10498 -0.0443,0.10987 -0.0266,0.11474 -0.009,0.11963 0.0156,0.17456 0.0467,0.17212 0.0778,0.16967 0.10894,0.16724 0.14008,0.16479 0.1712,0.16236 0.20233,0.15991 0.23346,0.15747 0.2475,0.14648 0.24444,0.12696 0.2414,0.10742 0.23834,0.0879 0.23529,0.0684 0.23224,0.0488 0.22918,0.0293 0.22614,0.01 0.37476,-0.0339 0.35278,-0.10163 0.33081,-0.16937 0.30884,-0.23712 0.28686,-0.30487 0.26489,-0.37262 0.24292,-0.44037 0.22095,-0.50812 0.19226,-0.57007 0.16663,-0.61645 0.14099,-0.66284 0.11536,-0.70923 0.0897,-0.75562 0.0641,-0.802 0.0385,-0.84839 z"
       sodipodi:nodetypes="ccccccccccccccccccccccccccccccccccccccccccccccccccccccccccccccccccccccccccccccccccccccccccccccccccccccccccccccccccccccccccccccccccccccccccccccccccccccccccccccccccccccccccccccccccccccccccccccccccccccccccccccccc" />
  </g>
</svg>
