<?xml version="1.0" encoding="UTF-8" standalone="no"?>
<!-- Created with Inkscape (http://www.inkscape.org/) -->

<svg
   xmlns:dc="http://purl.org/dc/elements/1.1/"
   xmlns:cc="http://creativecommons.org/ns#"
   xmlns:rdf="http://www.w3.org/1999/02/22-rdf-syntax-ns#"
   xmlns:svg="http://www.w3.org/2000/svg"
   xmlns="http://www.w3.org/2000/svg"
   xmlns:sodipodi="http://sodipodi.sourceforge.net/DTD/sodipodi-0.dtd"
   xmlns:inkscape="http://www.inkscape.org/namespaces/inkscape"
   sodipodi:docname="logo_ac_lines2_ready.svg"
   viewBox="0 0 637.79529 1062.9921"
   height="30cm"
   width="18cm"
   inkscape:version="0.91 r13725"
   version="1.1"
   id="svg2">
  <metadata
     id="metadata8">
    <rdf:RDF>
      <cc:Work
         rdf:about="">
        <dc:format>image/svg+xml</dc:format>
        <dc:type
           rdf:resource="http://purl.org/dc/dcmitype/StillImage" />
        <dc:title></dc:title>
      </cc:Work>
    </rdf:RDF>
  </metadata>
  <defs
     id="defs6" />
  <sodipodi:namedview
     inkscape:current-layer="layer2"
     inkscape:window-maximized="1"
     inkscape:window-y="-8"
     inkscape:window-x="-8"
     inkscape:cy="101.64274"
     inkscape:cx="19.002499"
     inkscape:zoom="1.302069"
     showgrid="false"
     id="namedview4"
     inkscape:window-height="1017"
     inkscape:window-width="1920"
     inkscape:pageshadow="2"
     inkscape:pageopacity="0"
     guidetolerance="10"
     gridtolerance="10"
     objecttolerance="10"
     borderopacity="1"
     bordercolor="#666666"
     pagecolor="#ffffff"
     units="cm"
     inkscape:document-units="mm" />
  <g
     inkscape:groupmode="layer"
     id="layer2"
     inkscape:label="Layer 2"
     style="display:inline"
     transform="translate(0,700.49213)">
    <g
       id="g4219"
       transform="matrix(2.1549758,0,0,2.1549758,283.74829,-402.45891)">
      <g
         transform="matrix(-0.29287764,0,0,0.29287764,129.23966,233.73747)"
         id="g14805">
        <path
           style="fill:none;fill-rule:evenodd;stroke:#000000;stroke-width:1px;stroke-linecap:butt;stroke-linejoin:miter;stroke-opacity:1"
           d="m 84.672934,168.38586 4.3187,-7.07177 4.281911,-7.09949 4.257585,-7.11844 4.24572,-7.12863 4.24633,-7.13006 4.2594,-7.12272 4.28494,-7.10662 4.32294,-7.08176 4.3734,-7.04814 4.43633,-7.005753 4.51172,-6.954605 4.59959,-6.894696 4.69991,-6.826023 4.8127,-6.748589 4.93796,-6.662391 5.07568,-6.567432 1.46938,-1.902722 1.65446,-1.489089 1.8024,-1.095346 1.91318,-0.721493 1.9868,-0.367531 2.02327,-0.03346 2.02257,0.280723 1.98472,0.575013 1.90973,0.849414 1.79756,1.103925 1.64825,1.338544 1.46177,1.553275 1.23815,1.748114 0.97736,1.923063 0.67942,2.078121 0.34433,2.21329 1.16135,5.339215 1.08541,5.355702 1.02379,5.369076 0.97646,5.379336 0.94343,5.386482 0.92472,5.390515 0.92031,5.391432 0.93021,5.38924 0.95439,5.38393 0.9929,5.37551 1.04571,5.36398 1.11281,5.34932 1.19424,5.33156 1.28995,5.31069 1.39997,5.2867 1.5243,5.25959 0.83401,3.75726 0.81069,3.76273 0.79287,3.76689 0.78057,3.76974 0.7738,3.77127 0.77253,3.7715 0.7768,3.77041 0.78656,3.76802 0.80186,3.76432 0.82267,3.75931 0.849,3.75298 0.88084,3.74534 0.9182,3.7364 0.96109,3.72614 1.00948,3.71458 1.0634,3.7017 0.45202,2.20451 0.57967,2.18098 0.68236,2.16172 0.76008,2.14672 0.81286,2.13599 0.84067,2.12951 0.84353,2.12729 0.82142,2.12934 0.77437,2.13565 0.70234,2.14621 0.60537,2.16105 0.48343,2.18014 0.33654,2.2035 0.16468,2.23111 -0.0321,2.26298 -0.25389,2.29913 -0.45799,2.17047 -0.7886,1.92145 -1.07903,1.67054 -1.32926,1.41769 -1.53932,1.16296 -1.70917,0.90631 -1.83884,0.64774 -1.92832,0.38728 -1.97761,0.1249 -1.98671,-0.13939 -1.95563,-0.40558 -1.88435,-0.67369 -1.77289,-0.9437 -1.62124,-1.21563 -1.42939,-1.48946 -1.19736,-1.7652 -1.41113,-2.26999 -1.31169,-2.32086 -1.21944,-2.36732 -1.13438,-2.4094 -1.0565,-2.44707 -0.9858,-2.48036 -0.92228,-2.50924 -0.86596,-2.53374 -0.81681,-2.55383 -0.77485,-2.56953 -0.74007,-2.58083 -0.71247,-2.58774 -0.69207,-2.59025 -0.67884,-2.58837 -0.6728,-2.58209 -0.67394,-2.57142 -0.40529,-1.72042 -0.40002,-1.72175 -0.39346,-1.72325 -0.38561,-1.72493 -0.37648,-1.72677 -0.36607,-1.72878 -0.35437,-1.73097 -0.34139,-1.73332 -0.32711,-1.73585 -0.31156,-1.73854 -0.29471,-1.7414 -0.27659,-1.74444 -0.25718,-1.74764 -0.23648,-1.75102 -0.2145,-1.75457 -0.19123,-1.75828 -4.43164,0.87444 -4.43342,0.86544 -4.43485,0.85819 -4.43594,0.85272 -4.43667,0.84901 -4.43706,0.84707 -4.43708,0.84691 -4.43676,0.8485 -4.4361,0.85187 -4.43507,0.857 -4.4337,0.86391 -4.43198,0.87257 -4.42991,0.88302 -4.42748,0.89522 -4.42471,0.9092 -4.42158,0.92494 -1.27218,1.62162 -1.17021,1.68004 -1.07986,1.73187 -1.00116,1.77707 -0.93409,1.81569 -0.878649,1.8477 -0.834853,1.87309 -0.802689,1.8919 -0.782163,1.90408 -0.77327,1.90968 -0.776014,1.90866 -0.790394,1.90104 -0.816409,1.88681 -0.854061,1.86599 -0.903348,1.83855 -0.96427,1.80451 -1.121593,2.0034 -1.036748,2.14835 -0.977331,2.25857 -0.943344,2.33401 -0.934787,2.37472 -0.951661,2.38067 -0.993964,2.35185 -1.061696,2.2883 -1.154859,2.18998 -1.273451,2.05692 -1.417474,1.88909 -1.586926,1.68652 -1.781807,1.44919 -2.00212,1.17711 -2.247861,0.87028 -2.519032,0.52868 -2.146186,0.0588 -1.998162,-0.23948 -1.842868,-0.51299 -1.680302,-0.76175 -1.510465,-0.98576 -1.333358,-1.18501 -1.14898,-1.35952 -0.957329,-1.50927 -0.75841,-1.63426 -0.552217,-1.73452 -0.338756,-1.81001 -0.118021,-1.86075 0.109983,-1.88674 0.345258,-1.88798 0.587805,-1.86446 0.837622,-1.8162 0.908559,-2.84418 0.998991,-2.81286 1.074316,-2.78668 1.134534,-2.76562 1.179646,-2.74971 1.209652,-2.73891 1.224551,-2.73325 1.224345,-2.73273 1.209032,-2.73733 1.178612,-2.74708 1.133087,-2.76194 1.072454,-2.78194 0.996716,-2.80708 0.905871,-2.83734 0.79992,-2.87274 0.678863,-2.91327 -0.358829,-1.65539 -0.229756,-1.63185 -0.09991,-1.60162 0.03071,-1.56468 0.162102,-1.52101 0.294266,-1.47065 0.427205,-1.41357 0.560915,-1.34978 0.695398,-1.27929 0.830654,-1.20207 0.966683,-1.11816 1.103484,-1.02752 1.241059,-0.93019 1.379406,-0.82614 1.518526,-0.71538 1.658419,-0.59791 0.06176,-0.0428 0.06176,-0.0428 0.06176,-0.0428 0.06176,-0.0428 0.06176,-0.0428 0.06176,-0.0428 0.06176,-0.0428 0.06176,-0.0428 0.06176,-0.0428 0.06176,-0.0428 0.06176,-0.0428 0.06176,-0.0428 0.06176,-0.0428 0.06176,-0.0428 0.06176,-0.0428 0.06176,-0.0428 0,0 0,0 0,0 0,0 0,0 0,0 0,0 0,0 0,0 0,0 0,0 0,0 0,0 0,0 0,0 z"
           id="path13943"
           inkscape:connector-curvature="0"
           sodipodi:nodetypes="ccccccccccccccccccccccccccccccccccccccccccccccccccccccccccccccccccccccccccccccccccccccccccccccccccccccccccccccccccccccccccccccccccccccccccccccccccccccccccccccccccccccccccccccccccccccccccccccccccccccccccccccccccccccccccccccccccccccccccccccccccccccccccccccccc" />
        <path
           style="display:inline;fill:none;fill-rule:evenodd;stroke:#000000;stroke-width:1px;stroke-linecap:butt;stroke-linejoin:miter;stroke-opacity:1"
           d="m 123.55336,160.22577 4.22405,-6.96008 4.22404,-6.96007 4.22405,-6.96008 4.22405,-6.96008 4.22405,-6.96008 4.22404,-6.96007 4.22405,-6.96008 4.22405,-6.96008 1.45958,0.40423 0.98517,0.82445 0.61029,1.14705 0.33493,1.37202 0.15912,1.49937 0.0828,1.5291 0.10606,1.46118 0.22883,1.29566 0.72381,3.9847 0.77928,3.97398 0.81937,3.96627 0.84406,3.96157 0.85336,3.95986 0.84727,3.96118 0.82579,3.9655 0.78893,3.97283 0.40738,1.08641 0.22444,1.03453 0.0248,0.95632 -0.19153,0.85178 -0.42455,0.72091 -0.67425,0.56372 -0.94064,0.3802 -1.22372,0.17036 -4.31409,0.85373 -4.31052,0.87775 -4.30785,0.8958 -4.30609,0.90792 -4.30525,0.91407 -4.30533,0.91427 -4.30631,0.90853 -4.3082,0.89683 -0.87242,0.18357 -0.87241,0.18356 -0.87242,0.18357 -0.87241,0.18357 -0.87242,0.18357 -0.87242,0.18357 -0.87241,0.18356 z"
           id="path13941"
           inkscape:connector-curvature="0"
           sodipodi:nodetypes="ccccccccccccccccccccccccccccccccccccccccccccccccc" />
        <path
           style="display:inline;fill:none;fill-rule:evenodd;stroke:#000000;stroke-width:1px;stroke-linecap:butt;stroke-linejoin:miter;stroke-opacity:1"
           d="m 199.97021,154.56171 2.66195,-2.54939 2.60218,-2.58234 2.5555,-2.60796 2.52192,-2.62626 2.50144,-2.63723 2.49404,-2.64087 2.49974,-2.63721 2.51854,-2.62621 2.55042,-2.60788 2.59539,-2.58223 2.65347,-2.54927 2.72464,-2.50897 2.8089,-2.46135 2.90625,-2.4064 3.01669,-2.34414 3.14024,-2.27455 2.67347,-1.20665 2.64367,-1.08153 2.61721,-0.96283 2.59405,-0.85054 2.57425,-0.74467 2.55776,-0.64519 2.54461,-0.55213 2.53478,-0.46549 2.52828,-0.38525 2.52511,-0.31142 2.52527,-0.244 2.52876,-0.183 2.53557,-0.1284 2.54572,-0.0802 2.5592,-0.0384 2.576,-0.003 1.34562,-0.11199 1.3454,-0.13209 1.34421,-0.15342 1.34205,-0.17601 1.33893,-0.19983 1.33484,-0.2249 1.3298,-0.25121 1.32378,-0.27877 1.3168,-0.30757 1.30886,-0.3376 1.29995,-0.3689 1.29008,-0.40142 1.27924,-0.4352 1.26744,-0.47021 1.25468,-0.50647 1.24094,-0.54398 1.62972,-0.0615 1.58306,0.15655 1.52703,0.35901 1.46168,0.54588 1.38697,0.71716 1.30292,0.87288 1.20951,1.01301 1.10677,1.13755 0.99467,1.24653 0.87323,1.33991 0.74244,1.41773 0.60231,1.47995 0.45283,1.5266 0.29401,1.55767 0.12582,1.57315 -0.0517,1.57307 0.18944,1.73198 0.15679,1.73384 0.12806,1.73549 0.10324,1.73692 0.0824,1.73813 0.0654,1.73912 0.0523,1.73989 0.0432,1.74044 0.038,1.74078 0.0367,1.7409 0.0393,1.74079 0.0459,1.74047 0.0564,1.73993 0.0708,1.73917 0.0891,1.7382 0.11134,1.73699 -0.50818,1.93656 -0.83098,1.75248 -1.11337,1.56004 -1.35533,1.35925 -1.55686,1.1501 -1.71797,0.93258 -1.83864,0.70671 -1.9189,0.47248 -1.95873,0.22989 -1.95813,-0.0211 -1.9171,-0.28037 -1.83565,-0.54804 -1.71377,-0.82406 -1.55147,-1.10845 -1.34874,-1.40119 -1.10559,-1.7023 -0.75256,-1.1273 -0.73671,-1.16945 -0.72943,-1.19842 -0.7307,-1.21423 -0.74055,-1.21687 -0.75895,-1.20634 -0.78592,-1.18264 -0.82145,-1.14577 -0.86555,-1.09574 -0.91822,-1.03252 -0.97944,-0.95615 -1.04923,-0.8666 -1.12758,-0.76389 -1.21451,-0.64799 -1.30999,-0.51895 -1.41403,-0.37672 -2.946,-0.31176 -2.92578,-0.0619 -2.89909,0.17542 -2.8659,0.40009 -2.82623,0.61212 -2.78008,0.81154 -2.72744,0.99834 -2.6683,1.17252 -2.6027,1.33407 -2.5306,1.483 -2.452,1.61931 -2.36694,1.743 -2.27538,1.85407 -2.17734,1.95252 -2.0728,2.03834 -1.96179,2.11154 -2.38561,2.46609 -2.33397,2.51246 -2.28351,2.55684 -2.23423,2.59925 -2.18615,2.63969 -2.13925,2.67813 -2.09353,2.71461 -2.049,2.74911 -2.00566,2.78163 -1.96351,2.81217 -1.92254,2.84074 -1.88275,2.86732 -1.84416,2.89193 -1.80675,2.91456 -1.77052,2.93522 -1.73549,2.95389"
           id="path13959"
           inkscape:connector-curvature="0"
           sodipodi:nodetypes="ccccccccccccccccccccccccccccccccccccccccccccccccccccccccccccccccccccccccccccccccccccccccccccccccccccccccccccccccccccccccccccccccccccccccccccccccc" />
        <path
           style="display:inline;fill:none;fill-rule:evenodd;stroke:#000000;stroke-width:1px;stroke-linecap:butt;stroke-linejoin:miter;stroke-opacity:1"
           d="m 178.36997,195.26615 -3.39018,7.52675 -2.44816,7.79116 -1.62506,7.99577 -0.92088,8.14059 -0.33564,8.22563 0.1307,8.25087 0.4781,8.21633 0.70658,8.122 1.04823,3.97263 1.31826,3.8934 1.56858,3.80593 1.79916,3.71022 2.01003,3.60626 2.20118,3.49407 2.37259,3.37363 2.5243,3.24494 1.99253,2.5762 2.1383,2.44369 2.2763,2.30789 2.4065,2.16878 2.52894,2.02638 2.6436,1.88068 2.75047,1.73167 2.84956,1.57937 5.37062,2.97647 5.63749,2.15059 5.84499,1.42585 5.99316,0.80228 6.08197,0.27987 6.11144,-0.1414 6.08156,-0.46149 5.99233,-0.68044 5.06973,-1.0065 4.95876,-1.40302 4.84968,-1.75153 4.74243,-2.05198 4.63705,-2.3044 4.53353,-2.50878 4.43187,-2.66514 4.33206,-2.77344 3.10829,-2.13868 3.11693,-2.17011 3.08738,-2.22932 3.01962,-2.31631 2.91368,-2.43109 2.76954,-2.57365 2.5872,-2.74398 2.36666,-2.94209 0.85131,-2.84635 0.17173,-2.92298 -0.44031,-2.90985 -0.98481,-2.80697 -1.46176,-2.61434 -1.87117,-2.33194 -2.21302,-1.9598 -2.48734,-1.49789 -3.15771,-0.41928 -2.99703,0.34778 -2.8594,0.95997 -2.74483,1.4173 -2.65329,1.71977 -2.5848,1.86737 -2.53936,1.86011 -2.51697,1.69798 -3.04279,2.20708 -3.04644,2.23396 -3.07708,2.19848 -3.13469,2.10062 -3.21926,1.94042 -3.33082,1.71784 -3.46935,1.43291 -3.63485,1.08562 -2.82636,0.98579 -2.86673,0.8786 -2.90164,0.74921 -2.9311,0.59763 -2.95509,0.42386 -2.97364,0.2279 -2.98671,0.01 -2.99435,-0.23061 -3.08485,-0.0261 -3.00628,-0.42442 -2.91249,-0.78833 -2.80352,-1.11775 -2.67933,-1.41273 -2.53995,-1.67323 -2.38536,-1.89927 -2.21556,-2.09084 -2.39644,-2.2662 -2.25638,-2.43658 -2.07261,-2.59932 -1.84516,-2.75444 -1.57401,-2.90196 -1.25916,-3.04184 -0.90061,-3.17411 -0.49838,-3.29876"
           id="path13989"
           inkscape:connector-curvature="0"
           sodipodi:nodetypes="ccccccccccccccccccccccccccccccccccccccccccccccccccccccccccccccccccccccccccccccccccccccccccccccccc" />
      </g>
      <path
         sodipodi:nodetypes="ccccccccccccccccccccccccccccccccccccccccccccccccccccccccccccccccccccccccccccccccccccccccccccccccccccccccccccccccccccccccccccccccccccccccccccccccccccccccccccccccccccccccccccccccccccccccccccccccccccccccccccccccccccccccccccccccccccccccccccccccccccccccccccccccccccccccccccccccccccccccccccccccccccccccccccccccccccccccccccccccccccccccccccccccccccccccccccccccccccccccccccccccccccccccccccccccccccccccccccccccccccccccccccccccccccccccccccccccccccccccccccccccccccccccccccccccccccccccccccccccccccccccccccccccccccccccccccccccc"
         inkscape:connector-curvature="0"
         id="path3416"
         d="m 119.92134,289.2832 -0.004,0.63653 -0.0121,0.6346 -0.02,0.63261 -0.028,0.63058 -0.0358,0.62851 -0.0437,0.62637 -0.0515,0.6242 -0.0592,0.62198 -0.0669,0.6197 -0.0745,0.61738 -0.0821,0.61501 -0.0897,0.6126 -0.0972,0.61013 -0.1046,0.60761 -0.112,0.60505 -0.11934,0.60244 -0.12665,0.59978 -0.1339,0.59707 -0.14111,0.59432 -0.14826,0.59151 -0.15537,0.58866 -0.16243,0.58575 -0.16944,0.58281 -0.17641,0.57981 -0.18331,0.57676 -0.19019,0.57367 -0.197,0.57053 -0.20377,0.56733 -0.21049,0.5641 -0.21716,0.5608 -0.22379,0.55747 -0.23036,0.55409 -0.23689,0.55065 -0.24337,0.54717 -0.24981,0.54364 -0.25618,0.54006 -0.26252,0.53644 -0.2688,0.53276 -0.27504,0.52904 -0.28123,0.52526 -0.28737,0.52145 -0.29346,0.51758 -0.29951,0.51366 -0.3055,0.50969 -0.31145,0.50569 -0.31735,0.50162 -0.3232,0.49751 -0.32901,0.49335 -0.33475,0.48915 -0.34046,0.48489 -0.34612,0.48059 -0.35173,0.47623 -0.35729,0.47184 -0.3628,0.46738 -0.36826,0.4629 -0.37368,0.45834 -0.37905,0.45375 -0.38436,0.44911 -0.38964,0.44442 -0.39486,0.43968 -0.40003,0.4349 -0.40515,0.43005 -0.41024,0.42518 -0.41526,0.42024 -0.42024,0.41527 -0.42518,0.41023 -0.43006,0.40516 -0.43489,0.40003 -0.43968,0.39486 -0.44442,0.38963 -0.44911,0.38437 -0.45375,0.37904 -0.45835,0.37368 -0.46289,0.36827 -0.46739,0.3628 -0.47183,0.35729 -0.476237,0.35172 -0.480588,0.34612 -0.484891,0.34046 -0.489146,0.33476 -0.493352,0.329 -0.497511,0.3232 -0.501622,0.31735 -0.505682,0.31145 -0.509696,0.3055 -0.513662,0.29951 -0.517577,0.29346 -0.521446,0.28738 -0.525266,0.28123 -0.529038,0.27504 -0.532761,0.2688 -0.536436,0.26252 -0.540062,0.25618 -0.54364,0.2498 -0.54717,0.24337 -0.550652,0.23689 -0.554085,0.23037 -0.55747,0.22379 -0.560806,0.21716 -0.564094,0.21049 -0.567334,0.20377 -0.570525,0.197 -0.573669,0.19019 -0.576763,0.18331 -0.579809,0.17641 -0.582807,0.16944 -0.585758,0.16243 -0.588658,0.15536 -0.591511,0.14827 -0.594316,0.1411 -0.597072,0.13391 -0.59978,0.12664 -0.60244,0.11935 -0.60505,0.112 -0.607614,0.1046 -0.610128,0.0972 -0.612594,0.0897 -0.615012,0.0821 -0.617382,0.0745 -0.619702,0.0669 -0.621975,0.0592 -0.6242,0.0515 -0.626376,0.0437 -0.628503,0.0358 -0.630583,0.028 -0.632614,0.02 -0.634596,0.012 -0.636531,0.004 -0.636531,-0.004 -0.634596,-0.012 -0.632614,-0.02 -0.630583,-0.028 -0.628503,-0.0358 -0.626376,-0.0437 -0.6242,-0.0515 -0.621975,-0.0592 -0.619702,-0.0669 -0.617382,-0.0745 -0.615012,-0.0821 -0.612594,-0.0897 -0.610128,-0.0972 -0.607614,-0.1046 -0.605051,-0.112 -0.602439,-0.11935 -0.59978,-0.12664 -0.597072,-0.13391 -0.594316,-0.1411 -0.591511,-0.14826 -0.588659,-0.15537 -0.585757,-0.16243 -0.582807,-0.16944 -0.57981,-0.17641 -0.576763,-0.18331 -0.573668,-0.19019 -0.570525,-0.197 -0.567334,-0.20377 -0.564094,-0.21049 -0.560807,-0.21716 -0.557469,-0.22379 -0.554085,-0.23037 -0.550652,-0.23689 -0.54717,-0.24337 -0.543641,-0.2498 -0.540062,-0.25618 -0.536436,-0.26252 -0.53276,-0.2688 -0.529038,-0.27504 -0.525266,-0.28123 -0.521446,-0.28737 -0.517578,-0.29347 -0.513661,-0.29951 -0.509696,-0.3055 -0.505683,-0.31145 -0.501621,-0.31735 -0.497511,-0.3232 -0.493353,-0.329 -0.489146,-0.33475 -0.484891,-0.34047 -0.480587,-0.34612 -0.476236,-0.35172 -0.471836,-0.35729 -0.467387,-0.3628 -0.46289,-0.36827 -0.458345,-0.37367 -0.453752,-0.37905 -0.449109,-0.38437 -0.44442,-0.38963 -0.439681,-0.39486 -0.434893,-0.40003 -0.430059,-0.40516 -0.425175,-0.41023 -0.420243,-0.41527 -0.415263,-0.42024 -0.410234,-0.42517 -0.405157,-0.43006 -0.400032,-0.4349 -0.394858,-0.43968 -0.389635,-0.44442 -0.384366,-0.44911 -0.379046,-0.45375 -0.37368,-0.45834 -0.368264,-0.46289 -0.3628,-0.46739 -0.357288,-0.47184 -0.351728,-0.47623 -0.346118,-0.48059 -0.340462,-0.48489 -0.334756,-0.48915 -0.329002,-0.49335 -0.323199,-0.49751 -0.317349,-0.50162 -0.31145,-0.50569 -0.305503,-0.50969 -0.299507,-0.51366 -0.293463,-0.51758 -0.287371,-0.52145 -0.28123,-0.52526 -0.275041,-0.52904 -0.268803,-0.53276 -0.262518,-0.53644 -0.256184,-0.54006 -0.249801,-0.54364 -0.24337,-0.54717 -0.236891,-0.55065 -0.230364,-0.55409 -0.223788,-0.55747 -0.217163,-0.5608 -0.210491,-0.5641 -0.20377,-0.56733 -0.197001,-0.57053 -0.190183,-0.57367 -0.183318,-0.57676 -0.176403,-0.57981 -0.16944,-0.5828 -0.162429,-0.58576 -0.15537,-0.58866 -0.148262,-0.59151 -0.141106,-0.59432 -0.133902,-0.59707 -0.126649,-0.59978 -0.119348,-0.60244 -0.111998,-0.60505 -0.104601,-0.60761 -0.09715,-0.61013 -0.08966,-0.6126 -0.08212,-0.61501 -0.07453,-0.61738 -0.06689,-0.6197 -0.0592,-0.62198 -0.05146,-0.6242 -0.04368,-0.62637 -0.03584,-0.62851 -0.02796,-0.63058 -0.02003,-0.63261 -0.01206,-0.6346 -0.004,-0.63653 0.004,-0.63653 0.01206,-0.6346 0.02003,-0.63261 0.02796,-0.63058 0.03584,-0.62851 0.04368,-0.62637 0.05146,-0.6242 0.0592,-0.62198 0.06689,-0.6197 0.07453,-0.61738 0.08212,-0.61501 0.08966,-0.6126 0.09715,-0.61013 0.104601,-0.60761 0.111999,-0.60505 0.119348,-0.60244 0.126649,-0.59978 0.133901,-0.59707 0.141107,-0.59432 0.148262,-0.59151 0.15537,-0.58866 0.162429,-0.58575 0.169441,-0.58281 0.176403,-0.57981 0.183317,-0.57676 0.190183,-0.57367 0.197001,-0.57053 0.20377,-0.56733 0.210491,-0.56409 0.217164,-0.56081 0.223788,-0.55747 0.230363,-0.55408 0.236892,-0.55066 0.24337,-0.54717 0.249801,-0.54364 0.256184,-0.54006 0.262518,-0.53643 0.268803,-0.53277 0.275041,-0.52903 0.28123,-0.52527 0.287371,-0.52144 0.293463,-0.51758 0.299507,-0.51366 0.305503,-0.5097 0.31145,-0.50568 0.317349,-0.50162 0.3232,-0.49751 0.329002,-0.49336 0.334756,-0.48914 0.340461,-0.48489 0.346119,-0.48059 0.351727,-0.47624 0.357288,-0.47183 0.3628,-0.46739 0.368265,-0.46289 0.373679,-0.45834 0.379047,-0.45376 0.384365,-0.44911 0.389636,-0.44442 0.394858,-0.43968 0.400031,-0.43489 0.405157,-0.43006 0.410234,-0.42517 0.415263,-0.42025 0.420243,-0.41526 0.425175,-0.41023 0.430059,-0.40516 0.434894,-0.40003 0.439681,-0.39486 0.444419,-0.38964 0.44911,-0.38436 0.453751,-0.37905 0.458345,-0.37368 0.46289,-0.36826 0.467387,-0.3628 0.471836,-0.35729 0.476236,-0.35173 0.480587,-0.34612 0.484891,-0.34046 0.489146,-0.33475 0.493353,-0.329 0.497511,-0.3232 0.501621,-0.31735 0.505682,-0.31145 0.509697,-0.30551 0.513661,-0.2995 0.517577,-0.29347 0.521446,-0.28737 0.525266,-0.28123 0.529038,-0.27504 0.532761,-0.2688 0.536435,-0.26252 0.540062,-0.25618 0.543641,-0.2498 0.54717,-0.24337 0.550652,-0.2369 0.554084,-0.23036 0.55747,-0.22379 0.560806,-0.21716 0.564094,-0.21049 0.567334,-0.20377 0.570525,-0.197 0.573669,-0.19019 0.576763,-0.18331 0.579809,-0.17641 0.582807,-0.16944 0.585757,-0.16243 0.588658,-0.15537 0.591512,-0.14826 0.594315,-0.1411 0.597072,-0.13391 0.59978,-0.12664 0.60244,-0.11935 0.60505,-0.112 0.607614,-0.1046 0.610128,-0.0972 0.612594,-0.0897 0.615012,-0.0821 0.617381,-0.0745 0.619703,-0.0669 0.621975,-0.0592 0.6242,-0.0515 0.626375,-0.0437 0.628504,-0.0359 0.630582,-0.028 0.632614,-0.02 0.634596,-0.012 0.636531,-0.004 0.636531,0.004 0.634596,0.012 0.632614,0.02 0.630582,0.028 0.628504,0.0359 0.626375,0.0437 0.6242,0.0515 0.621975,0.0592 0.619703,0.0669 0.617381,0.0745 0.615012,0.0821 0.612594,0.0897 0.610128,0.0972 0.607613,0.1046 0.605051,0.112 0.60244,0.11935 0.599779,0.12664 0.597072,0.13391 0.594316,0.1411 0.591511,0.14826 0.588659,0.15537 0.585757,0.16243 0.582807,0.16944 0.579809,0.17641 0.576763,0.18331 0.573668,0.19019 0.570526,0.197 0.567334,0.20377 0.564094,0.21049 0.560806,0.21716 0.557469,0.22379 0.554085,0.23036 0.550652,0.2369 0.54717,0.24337 0.54364,0.2498 0.540062,0.25618 0.536436,0.26252 0.532761,0.2688 0.529037,0.27504 0.525266,0.28123 0.521446,0.28737 0.517578,0.29347 0.513661,0.2995 0.509696,0.30551 0.505683,0.31145 0.501621,0.31735 0.497511,0.3232 0.493353,0.329 0.489146,0.33475 0.48489,0.34046 0.480588,0.34612 0.476233,0.35173 0.47184,0.35729 0.46739,0.3628 0.46289,0.36826 0.45834,0.37368 0.45375,0.37905 0.44911,0.38436 0.44442,0.38964 0.43968,0.39486 0.4349,0.40003 0.43006,0.40516 0.42517,0.41023 0.42024,0.41526 0.41527,0.42025 0.41023,0.42517 0.40516,0.43006 0.40003,0.43489 0.39486,0.43968 0.38963,0.44442 0.38437,0.44911 0.37905,0.45376 0.37367,0.45834 0.36827,0.46289 0.3628,0.46739 0.35729,0.47183 0.35172,0.47624 0.34612,0.48059 0.34046,0.48489 0.33476,0.48914 0.329,0.49336 0.3232,0.49751 0.31735,0.50162 0.31145,0.50568 0.3055,0.5097 0.29951,0.51366 0.29346,0.51758 0.28738,0.52144 0.28123,0.52527 0.27504,0.52903 0.2688,0.53277 0.26252,0.53643 0.25618,0.54006 0.2498,0.54364 0.24337,0.54717 0.23689,0.55066 0.23037,0.55408 0.22379,0.55747 0.21716,0.56081 0.21049,0.56409 0.20377,0.56733 0.197,0.57053 0.19018,0.57367 0.18332,0.57676 0.1764,0.57981 0.16944,0.58281 0.16243,0.58575 0.15537,0.58866 0.14827,0.59151 0.1411,0.59432 0.1339,0.59707 0.12665,0.59978 0.11935,0.60244 0.112,0.60505 0.1046,0.60761 0.0972,0.61013 0.0897,0.6126 0.0821,0.61501 0.0745,0.61738 0.0669,0.6197 0.0592,0.62198 0.0515,0.6242 0.0437,0.62637 0.0358,0.62851 0.028,0.63058 0.02,0.63261 0.0121,0.6346 z"
         style="fill:none;fill-opacity:1;stroke:#000000;stroke-width:0.35433072;stroke-miterlimit:4;stroke-dasharray:none;stroke-opacity:1" />
    </g>
  </g>
</svg>
