<?xml version="1.0" encoding="UTF-8" standalone="no"?>
<!-- Created with Inkscape (http://www.inkscape.org/) -->

<svg
   xmlns:dc="http://purl.org/dc/elements/1.1/"
   xmlns:cc="http://creativecommons.org/ns#"
   xmlns:rdf="http://www.w3.org/1999/02/22-rdf-syntax-ns#"
   xmlns:svg="http://www.w3.org/2000/svg"
   xmlns="http://www.w3.org/2000/svg"
   xmlns:sodipodi="http://sodipodi.sourceforge.net/DTD/sodipodi-0.dtd"
   xmlns:inkscape="http://www.inkscape.org/namespaces/inkscape"
   width="210mm"
   height="297mm"
   viewBox="0 0 744.09448819 1052.3622047"
   id="svg2"
   version="1.1"
   inkscape:version="0.91 r13725"
   sodipodi:docname="drawing.svg">
  <defs
     id="defs4" />
  <sodipodi:namedview
     id="base"
     pagecolor="#ffffff"
     bordercolor="#666666"
     borderopacity="1.0"
     inkscape:pageopacity="0.0"
     inkscape:pageshadow="2"
     inkscape:zoom="0.98994949"
     inkscape:cx="658.5922"
     inkscape:cy="602.6071"
     inkscape:document-units="px"
     inkscape:current-layer="layer1"
     showgrid="false"
     inkscape:window-width="1920"
     inkscape:window-height="1017"
     inkscape:window-x="-8"
     inkscape:window-y="-8"
     inkscape:window-maximized="1" />
  <metadata
     id="metadata7">
    <rdf:RDF>
      <cc:Work
         rdf:about="">
        <dc:format>image/svg+xml</dc:format>
        <dc:type
           rdf:resource="http://purl.org/dc/dcmitype/StillImage" />
        <dc:title></dc:title>
      </cc:Work>
    </rdf:RDF>
  </metadata>
  <g
     inkscape:label="Layer 1"
     inkscape:groupmode="layer"
     id="layer1">
    <g
       id="g3343">
      <path
         id="path3336"
         d="m 441.32608,488.14518 -1.93883,1.6149 -1.99813,1.46037 -2.05242,1.30863 -2.10171,1.15968 -2.14598,1.01349 -2.18526,0.8701 -2.21951,0.72947 -2.24878,0.59164 -2.27303,0.45659 -2.29228,0.32431 -2.30651,0.19481 -2.31575,0.0681 -2.31998,-0.0558 -2.3192,-0.17699 -2.31341,-0.29536 -2.30262,-0.41094 -2.28682,-0.52376 -2.26602,-0.63379 -2.2402,-0.74104 -2.20939,-0.8455 -2.17356,-0.94719 -2.13274,-1.0461 -2.0869,-1.14222 -2.03605,-1.23557 -1.98021,-1.32613 -1.91935,-1.41392 -1.85349,-1.49892 -1.78262,-1.58114 -1.70675,-1.66058 -1.62587,-1.73724 -1.53997,-1.81112 -1.44909,-1.88222 -1.94098,-2.8249 -1.74259,-2.88872 -1.54743,-2.94624 -1.3555,-2.99749 -1.16682,-3.04243 -0.98135,-3.08108 -0.79912,-3.11345 -0.62013,-3.13952 -0.44435,-3.1593 -0.27183,-3.1728 -0.10251,-3.17999 0.0636,-3.18091 0.2264,-3.17552 0.386,-3.16385 0.54238,-3.14589 0.69553,-3.12163 0.84544,-3.09109 0.99213,-3.05425 1.13557,-3.01113 1.2758,-2.9617 1.41278,-2.906 1.54654,-2.84399 1.67706,-2.77571 1.80436,-2.70112 1.92842,-2.62025 2.04925,-2.53309 2.16685,-2.43963 2.28121,-2.33988 2.39235,-2.23385 2.50026,-2.12152 2.60492,-2.0029 2.70637,-1.87799 3.69515,-2.28308 3.7661,-2.03905 3.82932,-1.79878 3.88481,-1.56226 3.93255,-1.3295 3.97257,-1.10049 4.00485,-0.87525 4.02939,-0.65376 4.04621,-0.43602 4.05528,-0.22205 4.05661,-0.0118 4.05023,0.19464 4.03609,0.39734 4.01424,0.5963 3.98463,0.79149 3.9473,0.98293 3.90223,1.17061 3.84943,1.35454 3.78889,1.5347 3.72062,1.71112 3.64461,1.88376 3.56087,2.05267 3.46939,2.21781 3.37018,2.37919 3.26323,2.53682 3.14856,2.6907 3.02614,2.84081 2.89598,2.98716 2.7581,3.12977 2.61249,3.26861 2.45912,3.40371 2.29804,3.53503 2.63266,4.55936 2.34219,4.63851 2.05601,4.70841 1.77416,4.76908 1.49663,4.82049 1.2234,4.86266 0.95449,4.89559 0.6899,4.91926 0.42961,4.93369 0.17365,4.93887 -0.078,4.93481 -0.32534,4.92151 -0.56837,4.89895 -0.80708,4.86715 -1.04148,4.8261 -1.27155,4.77581 -1.49733,4.71628 -1.71878,4.64748 -1.93591,4.56946 -2.14875,4.48218 -2.35725,4.38565 -2.56145,4.27989 -2.76133,4.16487 -2.9569,4.04061 -3.14815,3.9071 -3.33509,3.76435 -3.51772,3.61235 -3.69602,3.4511 -3.87003,3.28061 -4.03971,3.10087 -4.20507,2.91188 -4.36613,2.71366 -5.42067,2.98628 -5.50857,2.64891 -5.58566,2.31645 -5.65197,1.98886 -5.70748,1.66617 -5.7522,1.34836 -5.78613,1.03545 -5.80926,0.72742 -5.82161,0.42428 -5.82315,0.12603 -5.81391,-0.16734 -5.79388,-0.4558 -5.76305,-0.73939 -5.72142,-1.01809 -5.66902,-1.29189 -5.6058,-1.56081 -5.53181,-1.82484 -5.44702,-2.08398 -5.35144,-2.33824 -5.24506,-2.58759 -5.12789,-2.83208 -4.99992,-3.07165 -4.86118,-3.30636 -4.71163,-3.53617 -4.55129,-3.76108 -4.38015,-3.98112 -4.19824,-4.19626 -4.00551,-4.40652 -3.80201,-4.61188 -3.58771,-4.81236 -3.36261,-5.00794 -3.12672,-5.19865 -3.34229,-6.2804 -2.9578,-6.37734 -2.57878,-6.46191 -2.20524,-6.53414 -1.83716,-6.59399 -1.47457,-6.64148 -1.11744,-6.67663 -0.76578,-6.6994 -0.4196,-6.70982 -0.0789,-6.70788 0.25634,-6.69359 0.58611,-6.66692 0.91039,-6.6279 1.22921,-6.57652 1.54256,-6.51278 1.85042,-6.43668 2.15282,-6.34823 2.44975,-6.2474 2.7412,-6.13423 3.02719,-6.00869 3.30769,-5.87079 3.58272,-5.72054 3.85228,-5.55792 4.11637,-5.38294 4.37499,-5.19561 4.62813,-4.99591 4.8758,-4.78386 5.118,-4.55944 5.35473,-4.32266 5.58597,-4.07354 5.81175,-3.81204 6.03206,-3.53818 7.13916,-3.69985 7.24534,-3.26807 7.33757,-2.84235 7.41588,-2.42269 7.48023,-2.0091 7.53064,-1.60156 7.56713,-1.2001 7.58966,-0.8047 7.59826,-0.41535 7.59291,-0.0321 7.57363,0.34514 7.54042,0.71629 7.49324,1.08137 7.43215,1.44041 7.3571,1.79336 7.26812,2.14027 7.1652,2.4811 7.04834,2.81587 6.91753,3.14459 6.77279,3.46723 6.61411,3.78381 6.44148,4.09434 6.25493,4.39879 6.05442,4.69718 5.83998,4.98952 5.6116,5.27579 5.36927,5.55599 5.11302,5.83013 4.84281,6.09821 4.55867,6.36022 4.26058,6.61618 3.94857,6.86607 4.05846,7.99729 3.57928,8.11284 3.10675,8.21286 2.64088,8.29735 2.18167,8.36631 1.72912,8.41973 1.28322,8.45765 0.84398,8.48001 0.41141,8.48686 -0.0145,8.47817 -0.43379,8.45395 -0.84639,8.41421 -1.25235,8.35894 -1.65164,8.28814 -2.04427,8.2018 -2.43026,8.09994 -2.80957,7.98255 -3.18224,7.84963 -3.54825,7.70118 -3.90759,7.53721 -4.26029,7.3577 -4.60631,7.16266 -4.9457,6.95209 -5.27841,6.726 -5.60448,6.48437 -5.92387,6.22723 -6.23663,5.95453 -6.54271,5.66633 -6.84214,5.36258 -7.13492,5.04332 -7.42104,4.70851 -7.70049,4.35819 -8.85499,4.41782 -8.98,3.89115 -9.08789,3.37175 -9.17864,2.8596 -9.25229,2.3547 -9.30879,1.85706 -9.34818,1.36667 -9.37044,0.88354 -9.37558,0.40766 -9.36359,-0.061 -9.33448,-0.52233 -9.28823,-0.97644 -9.22488,-1.4233 -9.14439,-1.8629 -9.04677,-2.29526 -8.93204,-2.72035 -8.80017,-3.13819 -8.65118,-3.54877 -8.48508,-3.9521 -8.30183,-4.34819 -8.10148,-4.737 -7.88399,-5.11856 -7.64937,-5.49288 -7.39764,-5.85994 -7.12878,-6.21974 -6.84279,-6.57228 -6.53968,-6.91758 -6.21944,-7.25562 -5.88208,-7.5864 -5.5276,-7.90993 -5.15598,-8.2262 -4.76725,-8.53522 -4.77772,-9.71238 -4.20352,-9.84692 -3.63718,-9.96273 -3.0787,-10.05982 -2.52807,-10.13819 -1.98529,-10.19783 -1.45036,-10.23874 -0.9233,-10.26093 -0.40407,-10.26439 0.10728,-10.24913 0.61079,-10.21515 1.10644,-10.16243 1.59425,-10.091 2.07419,-10.00083 2.54628,-9.89194 3.01052,-9.76433 3.4669,-9.618 3.91543,-9.45293 4.35611,-9.26914 4.78893,-9.06663 5.21389,-8.84539 5.63101,-8.60542 6.04027,-8.34673 6.44168,-8.06932 6.83522,-7.77318 7.22093,-7.45832 7.59876,-7.12472 7.96876,-6.77241 8.33089,-6.40137 8.68518,-6.0116 9.0316,-5.60311 9.37017,-5.17589 7.94284,-3.92302 8.05373,-3.5763 8.15436,-3.2317 8.24475,-2.88927 8.32491,-2.54895 8.39482,-2.2108 8.45449,-1.87477 8.50391,-1.54088 8.54309,-1.20915 8.57203,-0.87955 8.59073,-0.55208 8.59918,-0.22677 8.59739,0.0964 8.58536,0.41745 8.56309,0.73634 8.53057,1.0531 8.48781,1.36772 8.43481,1.68019 8.37157,1.99052 8.29808,2.29871 8.21435,2.60477 8.12038,2.90867 8.01616,3.21045 7.90171,3.51007 7.77701,3.80756 7.64206,4.10291 7.49688,4.39611 7.34145,4.68718 7.17578,4.9761 6.99987,5.26289 6.81371,5.54753 6.61732,5.83003"
         style="fill:none;fill-rule:evenodd;stroke:#000000;stroke-width:1px;stroke-linecap:butt;stroke-linejoin:miter;stroke-opacity:1"
         inkscape:connector-curvature="0"
         sodipodi:nodetypes="ccccccccccccccccccccccccccccccccccccccccccccccccccccccccccccccccccccccccccccccccccccccccccccccccccccccccccccccccccccccccccccccccccccccccccccccccccccccccccccccccccccccccccccccccccccccccccccccccccccccccccccccccccccccccccccccccccccccccccccccccccccccccccccccccccccccccccccccccccccccccccccccccccccccccccccccccccccccccccccccccccccccccccccccccccccccccccccccccc" />
    </g>
  </g>
</svg>
