<?xml version="1.0" encoding="UTF-8" standalone="no"?>
<!-- Created with Inkscape (http://www.inkscape.org/) -->

<svg
   xmlns:dc="http://purl.org/dc/elements/1.1/"
   xmlns:cc="http://creativecommons.org/ns#"
   xmlns:rdf="http://www.w3.org/1999/02/22-rdf-syntax-ns#"
   xmlns:svg="http://www.w3.org/2000/svg"
   xmlns="http://www.w3.org/2000/svg"
   xmlns:sodipodi="http://sodipodi.sourceforge.net/DTD/sodipodi-0.dtd"
   xmlns:inkscape="http://www.inkscape.org/namespaces/inkscape"
   sodipodi:docname="piano_2nodes.svg"
   inkscape:version="0.91 r13725"
   version="1.1"
   id="svg3858"
   viewBox="0 0 637.79528 744.09448"
   height="21cm"
   width="18cm">
  <defs
     id="defs3860" />
  <sodipodi:namedview
     inkscape:window-maximized="1"
     inkscape:window-y="-8"
     inkscape:window-x="-8"
     inkscape:window-height="1017"
     inkscape:window-width="1920"
     showgrid="false"
     inkscape:current-layer="layer1"
     inkscape:document-units="mm"
     inkscape:cy="269.93171"
     inkscape:cx="205.92462"
     inkscape:zoom="1.4"
     inkscape:pageshadow="2"
     inkscape:pageopacity="0.0"
     borderopacity="1.0"
     bordercolor="#666666"
     pagecolor="#ffffff"
     id="base"
     units="cm" />
  <metadata
     id="metadata3863">
    <rdf:RDF>
      <cc:Work
         rdf:about="">
        <dc:format>image/svg+xml</dc:format>
        <dc:type
           rdf:resource="http://purl.org/dc/dcmitype/StillImage" />
        <dc:title></dc:title>
      </cc:Work>
    </rdf:RDF>
  </metadata>
  <g
     inkscape:label="Layer 1"
     inkscape:groupmode="layer"
     id="layer1"
     transform="translate(0,-308.26772)">
    <g
       transform="matrix(0.97941877,0,0,0.97941877,-23.632539,475.70911)"
       style="display:inline"
       id="g3599">
      <path
         id="path7270"
         style="color:#000000;clip-rule:nonzero;display:inline;overflow:visible;visibility:visible;opacity:1;isolation:auto;mix-blend-mode:normal;color-interpolation:sRGB;color-interpolation-filters:linearRGB;solid-color:#000000;solid-opacity:1;fill:none;fill-opacity:1;fill-rule:evenodd;stroke:#000000;stroke-width:0.5;stroke-linecap:round;stroke-linejoin:round;stroke-miterlimit:1.5;stroke-dasharray:none;stroke-dashoffset:0;stroke-opacity:1;color-rendering:auto;image-rendering:auto;shape-rendering:auto;text-rendering:auto;enable-background:accumulate"
         d="m 237.80469,327.29102 0.1085,0.42727 0.10461,0.43488 0.10158,0.44082 0.0994,0.44507 -0.099,-0.44568 -0.10194,-0.44021 -0.10498,-0.43428 z m -0.85547,-2.85743 0.15963,0.476 0.15484,0.49092 0.15093,0.50258 0.14788,0.51097 -0.14738,-0.51189 -0.15122,-0.50186 -0.15524,-0.49011 z m -12.33984,-12.03125 -0.5127,0.31738 -0.5127,0.31739 -0.51269,0.31738 -0.5127,0.31739 0.0244,0.87891 0.0244,0.8789 0.0244,0.8789 0.0244,0.87891 0.48828,-0.30518 0.48828,-0.30517 0.48829,-0.30518 0.48828,-0.30517 0,-0.89111 0,-0.89112 0,-0.89112 0,-0.89111 -1e-5,0 -1e-5,0 -1e-5,0 z m 160.78515,-20.70507 -1.53526,0.10853 -1.53238,0.10321 -1.52297,0.0979 -1.50704,0.0927 1.51412,-0.0926 1.5264,-0.0977 1.53056,-0.10314 z m 4.36133,-0.35157 -0.95476,0.0836 -0.96908,0.0809 -0.98031,0.0783 -0.98843,0.0756 0.99646,-0.0756 0.97816,-0.0781 0.964,-0.0809 z m -318.042969,-5.62695 0,0.13428 0,0.13427 0,0.13428 0,0.13428 3.806905,12.42382 -0.57548,11.86836 -5.702913,9.1031 -11.575387,4.12816 -3.833985,0.23486 -3.833984,0.23486 -3.833985,0.23487 -3.833984,0.23486 -2.792235,0.46398 -2.491184,1.36376 -1.788927,2.7375 -0.685466,4.58515 0,4.62793 0,4.62793 0,4.62793 0,4.62793 0.349609,-0.0312 0.349609,-0.0312 0.34961,-0.0312 0.349609,-0.0312 -9.75e-4,-5e-4 -9.75e-4,-5e-4 -9.75e-4,-5e-4 -9.75e-4,-5e-4 0,-1.72217 0,-1.72217 0,-1.72217 0,-1.72217 0.861328,-0.19434 0.861328,-0.19433 0.861328,-0.19433 0.861328,-0.19434 0.02246,-0.6123 0.02246,-0.61231 0.02246,-0.61231 0.02246,-0.6123 1.89209,-0.21972 1.892089,-0.21973 1.89209,-0.21973 1.89209,-0.21972 0,-1.13428 0,-1.13427 0,-1.13428 0,-1.13428 8.119629,-0.30322 8.119629,-0.30322 8.119629,-0.30323 8.119629,-0.30322 0,-12.03955 0,-12.03956 0,-12.03955 0,-12.03955 -1.958984,-0.4082 -1.958985,-0.4082 -1.958984,-0.40821 -1.958984,-0.4082 -10e-7,10e-6 0,1e-5 -10e-7,2e-5 z m 291.337889,-25.82813 -29.20902,1.23737 -29.21252,1.24553 -29.21317,1.24481 -29.21099,1.23519 -3.02849,7.30543 -2.74684,7.43943 -2.45537,7.60752 -2.15407,7.80972 -0.67041,-0.29883 -0.67041,-0.29883 -0.67041,-0.29882 -0.67041,-0.29883 -24.14453,-4.44092 -24.14453,-4.44091 -24.14453,-4.44092 -24.14453,-4.44092 0.52048,-1.7595 0.52959,-1.73925 0.53678,-1.72376 0.54205,-1.71304 -16.75521,0.59762 -16.74863,0.57448 -16.740856,0.54751 -16.731863,0.51672 0,2.75391 0,2.75391 0,2.7539 0,2.75391 4.535644,-0.21875 4.535645,-0.21875 4.535644,-0.21875 4.535645,-0.21875 33.688481,6.77393 33.68847,6.77392 33.68848,6.77393 33.68848,6.77392 0,-2.12402 0,-2.12402 0,-2.12403 0,-2.12402 36.71875,-1.89209 36.71875,-1.89209 36.71875,-1.89209 36.71875,-1.89209 0.48393,-0.0253 0.51357,-0.0273 0.52311,-0.0278 0.51259,-0.027 -2.6167,-8.13281 -2.6167,-8.13282 -2.6167,-8.13281 z m 200.13281,-7.2539 -46.30806,1.37835 -46.37593,1.59766 -46.42945,1.76883 -46.46859,1.89188 3.03955,8.01807 3.03955,8.01806 3.03956,8.01806 3.03955,8.01807 5.98053,-0.66193 4.09387,-0.81506 1.25052,-0.98916 -2.54953,-1.18424 -0.90332,-0.24414 -0.90332,-0.24414 -0.90332,-0.24414 -0.90332,-0.24414 -2.32269,-2.4252 6.72915,-2.73537 13.24174,-2.47442 17.21508,-1.64235 33.33345,-1.9667 33.34826,-2.08573 33.35702,-2.12543 33.3597,-2.08582 0,-4.13525 0,-4.13526 0,-4.13525 z m -312.02503,165.53906 1.60314,1.53267 1.51458,1.67804 1.28238,2.05949 0.90654,2.67707 4.33301,1.38135 4.33301,1.38135 4.33301,1.38134 4.33301,1.38135 -2.38849,-5.12481 -4.16312,-3.94406 -6.54698,-2.77779 z m -60.04493,-15.80659 0,-5.86573 0,-5.86573 0,-5.86574 0,-5.86573 0.60717,-4.04956 1.81762,-3.18126 3.02222,-2.27581 4.22096,-1.33321 6.0791,-0.78125 6.0791,-0.78125 6.07911,-0.78125 6.0791,-0.78125 9.941,-6.61758 4.09037,-12.01817 -0.1992,-13.4265 -2.92769,-10.84253 -0.36329,-0.81442 -0.26509,-0.7606 -0.16238,-0.79475 -0.0551,-0.91686 0,-4.2479 0,-4.24791 0,-4.2479 0,-4.24791 36.35254,-1.91664 36.35253,-1.91665 36.35254,-1.91664 36.35254,-1.91665 10.55149,-0.85055 9.56573,-1.22621 6.9412,-1.27426 2.67791,-0.99468 -0.78431,-0.98728 -1.8972,-0.88232 -2.32646,-0.80201 -2.07211,-0.74636 -1.9728,-2.38155 3.73775,-2.07177 6.48425,-1.53772 6.26667,-0.77937 46.75778,-2.9434 46.75777,-2.94341 46.75778,-2.9434 46.75778,-2.9434 27.24172,-1.62122 20.50021,-1.23572 12.91722,-1.13653 4.49273,-1.32364 0,16.40229 0,16.40229 0,16.4023 0,16.40229 -7.35279,2.64232 -17.84509,2.33333 -22.01749,2.01858 -19.87,1.69805 -33.76711,3.1074 -33.76711,3.1074 -33.76711,3.10741 -33.76711,3.1074 -14.75889,1.26862 -14.72193,1.42907 -14.26693,2.06551 -13.39393,3.17794 0,3.58629 0,3.58629 0,3.5863 0,3.58629 -1.30342,1.30645 -3.19953,1.30499 -4.02956,1.14314 -3.79352,0.82088 -3.96783,1.01212 -2.98616,1.40419 -2.06414,1.80153 -1.20178,2.20413 -0.57795,1.34356 -0.64365,0.69145 -0.80044,0.28762 -1.04828,0.13209 -48.47412,4.35817 -48.47412,4.35816 -48.47412,4.35817 z m 3.74993,-0.33715 0,2.95 0,2.95001 0,2.95 0,2.95 47.63095,-4.523 47.63094,-4.52299 47.63095,-4.523 47.63095,-4.523 0,-2.71125 0,-2.71126 0,-2.71125 0,-2.71126 -47.63095,4.28425 -47.63095,4.28425 -47.63094,4.28425 z m 40.98152,7.90844 0,1.93964 0,1.93964 0,1.93964 0,1.93964 16.93058,0.62515 11.09334,2.51627 6.56938,4.43276 3.35869,6.37461 7.97567,-0.75959 7.97566,-0.75958 7.97567,-0.75959 7.97567,-0.75959 4.80106,-8.75471 7.86235,-6.03357 10.33495,-3.8357 12.21887,-2.1611 0,-1.96537 0,-1.96536 0,-1.96537 0,-1.96537 -26.26797,2.49439 -26.26798,2.49439 -26.26797,2.49438 z m 67.32325,18.90913 -7.34277,0.69971 -7.34278,0.69971 -7.34277,0.6997 -7.34277,0.69971 0.71533,27.05811 0.71533,27.0581 0.71533,27.05811 0.71533,27.0581 4.90381,-0.52588 4.90381,-0.52588 4.90381,-0.52588 4.90381,-0.52588 1.72363,-27.23193 1.72363,-27.23193 1.72364,-27.23194 z m -43.94141,-1.8457 1.77832,27.47022 1.77832,27.47021 1.77832,27.47022 1.77832,27.47021 0.0415,0.0181 0.0415,0.0181 0.0415,0.0181 0.0415,0.0181 -0.0269,-0.35303 -0.0268,-0.35302 -0.0269,-0.35303 -0.0269,-0.35303 2.43262,1.09815 2.43261,1.09814 2.43262,1.09815 2.43262,1.09814 0.13232,-0.0141 0.13232,-0.0142 0.13233,-0.0141 0.13232,-0.0141 -0.71533,-27.0581 -0.71533,-27.05811 -0.71533,-27.0581 -0.71533,-27.05811 -3.64258,-1.16113 -3.64258,-1.16113 -3.64258,-1.16114 -3.64258,-1.16113 0,-2e-5 0,-2e-5 0,-2e-5 z m 389.01563,-88.53711 -5.16357,0.39795 -5.16358,0.39795 -5.16358,0.39794 -5.16357,0.39795 0,1.28906 0,1.28907 0,1.28906 0,1.28906 5.16357,-0.40283 5.16358,-0.40283 5.16358,-0.40283 5.16357,-0.40283 0,-1.28418 0,-1.28418 0,-1.28418 z m -13.82227,6.21484 -1.70801,0.1333 -1.70801,0.1333 -1.708,0.1333 -1.70801,0.1333 -8.02835,-0.10884 -6.01442,1.64698 -4.11071,3.30662 -2.31722,4.87009 5.20312,-0.41455 5.20313,-0.41455 5.20312,-0.41456 5.20313,-0.41455 0.69155,-2.24055 1.11288,-2.19844 1.83322,-2.1264 z m -28.20312,-8.19336 -6.68457,0.60742 -6.68457,0.60743 -6.68457,0.60742 -6.68457,0.60742 3.80954,1.74087 3.23799,2.57734 2.53258,3.60963 1.69332,4.83778 4.09131,0.81153 4.09131,0.81152 4.09131,0.81153 4.09131,0.81152 2.31722,-4.87009 4.11071,-3.30662 6.01442,-1.64698 8.02835,0.10884 0,-1.28906 0,-1.28906 0,-1.28907 0,-1.28906 -0.18897,0.0147 -0.18896,0.0147 -0.18897,0.0146 -0.18896,0.0147 -5.15381,-0.90723 -5.15381,-0.90722 -5.1538,-0.90723 z m -0.004,5.5e-4 5.15475,0.90718 5.15476,0.90718 5.15475,0.90718 5.15476,0.90718 6.60323,-0.50927 6.60323,-0.50926 6.60324,-0.50927 6.60323,-0.50927 0.92874,-0.12446 0.54934,-0.20494 0.26777,-0.26467 0.0841,-0.30363 0,-1.33129 0,-1.33129 0,-1.33129 0,-1.33129 -12.21547,1.1578 -12.21546,1.15781 -12.21547,1.1578 z m -13.51589,15.58148 1.13525,20.1626 1.13525,20.1626 1.13526,20.16259 1.13525,20.1626 2.57031,0.6001 2.57031,0.6001 2.57032,0.60009 2.57031,0.6001 0.005,-20.05615 0.005,-20.05615 0.005,-20.05616 0.005,-20.05615 -0.10547,0.008 -0.10547,0.008 -0.10546,0.008 -0.10547,0.008 -3.60303,-0.71484 -3.60303,-0.71485 -3.60302,-0.71484 -3.60303,-0.71485 -0.002,0 -0.002,0 -0.002,0 -0.002,0 5e-5,0 6e-5,1e-5 5e-5,0 z m 33.44921,1.34375 -4.65186,0.37061 -4.65185,0.3706 -4.65186,0.37061 -4.65185,0.3706 -0.005,20.05615 -0.005,20.05616 -0.005,20.05615 -0.005,20.05615 0.10449,0.0244 0.10449,0.0244 0.1045,0.0244 0.10449,0.0244 2.95459,-0.33008 2.95459,-0.33008 2.95459,-0.33007 2.95459,-0.33008 1.59765,-20.1211 1.59766,-20.12109 1.59765,-20.12109 1.59766,-20.1211 -1e-5,-10e-6 -10e-6,-1e-5 0,-10e-6 z m -401.5371,-53.3164 0,4.13525 0,4.13526 0,4.13525 0,4.13525 0.026,0.7261 0.0787,0.66933 0.13229,0.65228 0.18684,0.67495 2.98828,14.94006 -0.93568,13.73331 -5.61872,10.32582 -11.06083,4.7176 -3.90186,0.32813 -3.90185,0.32812 -3.90186,0.32813 -3.90185,0.32812 -6.0285,1.16148 -4.31731,2.59443 -2.59704,4.42791 -0.8677,6.66189 0,5.04102 0,5.04101 0,5.04102 0,5.04101 2.53125,0.74219 2.53125,0.74219 2.53125,0.74218 2.53125,0.74219 0,-5.86572 0,-5.86572 0,-5.86573 0,-5.86572 0.60717,-4.04956 1.81762,-3.18126 3.02222,-2.27581 4.22096,-1.33321 6.0791,-0.78125 6.0791,-0.78125 6.07911,-0.78125 6.0791,-0.78125 9.94097,-6.6175 4.0903,-12.01801 -0.19926,-13.42633 -2.92772,-10.84246 -0.36326,-0.81449 -0.26503,-0.76077 -0.16231,-0.79492 -0.0551,-0.91693 0,-4.24805 0,-4.24804 0,-4.24805 0,-4.24805 -2.63672,-0.41504 -2.63672,-0.41503 -2.63671,-0.41504 z m 0,0 36.71874,-1.89209 36.71875,-1.89208 36.71875,-1.89209 36.71874,-1.89209 11.1304,-0.62761 11.20242,-0.95404 6.7987,-1.37171 -2.08074,-1.88063 -0.90332,-0.24414 -0.90332,-0.24414 -0.90332,-0.24414 -0.90332,-0.24414 -2.32269,-2.4252 6.72915,-2.73537 13.24174,-2.47442 17.21508,-1.64235 33.93273,-2.00407 33.94793,-2.12678 33.95676,-2.16493 33.95926,-2.11856 20.10504,-1.22388 20.10504,-1.22388 20.10505,-1.22388 20.10504,-1.22388 6.36535,-0.50118 7.86253,-0.99245 1.96781,-1.53242 -11.3188,-2.12112 -21.3935,-2.24171 -21.75646,-1.74045 -22.10531,-1.33629 -22.44004,-1.02921 36.13631,1.20929 34.52911,1.9737 25.88088,2.83977 10.19163,3.80752 m -106.73791,-9.83029 22.44004,1.02921 22.10531,1.33628 21.75647,1.74046 21.3935,2.24171 11.31879,2.12101 -1.96784,1.53219 -7.86255,0.99221 -6.36536,0.50107 -20.10498,1.22412 -20.10498,1.22412 -20.10498,1.22412 -20.10498,1.22412 -33.95929,2.11852 -33.95683,2.16484 -33.94799,2.12668 -33.93276,2.00403 -17.21508,1.64235 -13.24174,2.47442 -6.72915,2.73537 2.32269,2.4252 0.90332,0.24414 0.90332,0.24414 0.90332,0.24414 0.90332,0.24414 2.08074,1.88063 -6.7987,1.37171 -11.20242,0.95404 -11.1304,0.62761 -36.71875,1.89209 -36.71875,1.89209 -36.71875,1.89209 -36.71875,1.89209 2.63672,0.41504 2.63671,0.41503 2.63672,0.41504 2.63672,0.41504 36.35254,-1.9165 36.35254,-1.91651 36.35254,-1.9165 36.35254,-1.9165 10.55149,-0.85054 9.56572,-1.22623 6.94121,-1.27426 2.6779,-0.99468 -0.78431,-0.98728 -1.89719,-0.88232 -2.32646,-0.80201 -2.07211,-0.74636 -1.97284,-2.38141 3.73767,-2.07147 6.48416,-1.5374 6.26663,-0.77925 46.75781,-2.94385 46.75781,-2.94385 46.75782,-2.94384 46.75781,-2.94385 26.28704,-1.56649 20.09507,-1.20022 13.15986,-1.08794 5.48147,-1.22933 0.0322,-0.0581 0.0322,-0.0581 0.0322,-0.0581 0.0322,-0.0581 -10.19169,-3.80749 -25.881,-2.8397 -34.52923,-1.97363 z m -325.3789,74.6543 0.10812,0.42787 0.10498,0.43428 0.10194,0.44021 0.099,0.44568 -0.0994,-0.44507 -0.10158,-0.44082 -0.10461,-0.43488 z m -0.85547,-2.85743 0.15944,0.47661 0.15524,0.49011 0.15122,0.50186 0.14738,0.51189 -0.14788,-0.51097 -0.15093,-0.50258 -0.15484,-0.49092 z m -172.314454,-54.85351 0,3.60791 0,3.60791 0,3.60791 0,3.60791 0.02208,0.3984 0.06333,0.35955 0.100216,0.35509 0.132729,0.38501 2.791827,9.71402 0.448133,10.96935 -4.255343,9.59251 -11.318601,5.58349 -3.57373,0.25928 -3.573731,0.25927 -3.57373,0.25928 -3.573731,0.25928 -5.44456,1.0524 -3.273575,2.13785 -1.59566,2.97681 -0.410815,3.56927 0,4.50293 0,4.50293 0,4.50293 0,4.50293 1.743164,0.55664 1.743165,0.55664 1.743164,0.55664 1.743164,0.55664 0,-4.62793 0,-4.62793 0,-4.62793 0,-4.62793 0.685466,-4.58515 1.788927,-2.7375 2.491184,-1.36376 2.792235,-0.46398 3.833985,-0.23486 3.833984,-0.23487 3.833985,-0.23486 3.833984,-0.23486 11.575387,-4.12816 5.702913,-9.1031 0.57548,-11.86836 -3.806905,-12.42382 0,-3.72461 0,-3.72461 0,-3.72461 0,-3.72461 -1.769531,-0.44433 -1.769531,-0.44434 -1.769532,-0.44434 z m 173.169924,57.71094 0.10812,0.42787 0.10498,0.43428 0.10194,0.44021 0.099,0.44568 -0.0994,-0.44507 -0.10158,-0.44082 -0.10461,-0.43488 z m -0.85547,-2.85743 0.15944,0.47661 0.15524,0.49011 0.15122,0.50186 0.14738,0.51189 -0.14788,-0.51097 -0.15093,-0.50258 -0.15484,-0.49092 z m -97.70117,-57.05664 -18.66216,0.59115 -18.65707,0.5659 -18.650787,0.53817 -18.643267,0.50791 1.769531,0.44433 1.769532,0.44434 1.769531,0.44433 1.769531,0.44434 16.731863,-0.51672 16.740856,-0.54751 16.74863,-0.57448 16.75521,-0.59762 0.13931,-0.4367 0.13962,-0.43617 0.13981,-0.43578 z m 104.75781,-3.68359 -0.0124,0.0282 -0.0121,0.0284 -0.0121,0.0284 -0.0123,0.0282 0.0127,-0.0284 0.0127,-0.0283 0.0127,-0.0283 0.0127,-0.0283 -4.5e-4,10e-6 -4.2e-4,-10e-6 -4.9e-4,-1e-5 z m 118.83203,-4.46289 -28.9901,1.08928 -29.01364,1.09402 -29.0308,1.0922 -29.04163,1.08387 -0.13995,0.31566 -0.13941,0.31581 -0.13889,0.31599 -0.13839,0.31622 29.21099,-1.23519 29.21317,-1.24481 29.21252,-1.24553 29.20902,-1.23737 -0.0532,-0.16504 -0.0532,-0.16504 -0.0532,-0.16503 z m 200.3457,-6.59375 -46.26841,1.28771 -46.40373,1.46334 -46.51932,1.59953 -46.61518,1.69629 0.0562,0.14746 0.0562,0.14747 0.0562,0.14746 0.0562,0.14746 46.46859,-1.89188 46.42945,-1.76883 46.37593,-1.59766 z m -532.002537,98.66121 0,2.15085 0,2.15085 0,2.15085 0,2.15085 40.920537,13.48267 40.92054,13.48268 40.92053,13.48267 40.92054,13.48268 0,-2.95 0,-2.95001 0,-2.95 0,-2.95 -0.93748,0.0843 -0.93749,0.0843 -0.93748,0.0843 -0.93748,0.0843 -2.53125,-0.74219 -2.53125,-0.74219 -2.53124,-0.74218 -2.53125,-0.74219 0,-0.26771 0,-0.26771 0,-0.2677 0,-0.26771 -36.25531,-11.51891 -36.25531,-11.5189 -36.255317,-11.51891 -36.255312,-11.51891 -0.348691,0.0315 -0.348692,0.0315 -0.348691,0.0315 -0.348691,0.0315 -0.847803,-0.27049 -0.847804,-0.2705 -0.847803,-0.27049 z m 4.785978,0.95598 0,-1.72208 0,-1.72208 0,-1.72208 0,-1.72208 36.255312,11.04629 36.255317,11.0463 36.25531,11.04629 36.25531,11.0463 0,2.19469 0,2.19469 0,2.1947 0,2.19469 -36.25531,-11.51891 -36.25531,-11.51891 -36.255317,-11.5189 z m 0,-6.88832 0.861298,-0.19421 0.861299,-0.19422 0.861298,-0.19421 0.861299,-0.19421 35.394014,10.84988 35.394011,10.84988 35.39402,10.84989 35.39401,10.84988 0,0.39062 0,0.39063 0,0.39062 0,0.39063 -36.25531,-11.0463 -36.25531,-11.04629 -36.255317,-11.0463 z m 145.021249,42.62268 0,-0.81556 0,-0.81557 0,-0.81556 0,-0.81556 -35.37158,-10.64684 -35.37158,-10.64684 -35.371586,-10.64684 -35.371582,-10.64684 -0.02243,0.61252 -0.02243,0.61252 -0.02243,0.61252 -0.02243,0.61252 35.394014,10.84988 35.394014,10.84988 35.39402,10.84989 z M 71.712891,282.37304 l 37.711429,7.82471 37.71142,7.8247 37.71143,7.82471 37.71142,7.82471 0.0244,0.8789 0.0244,0.87891 0.0244,0.8789 0.0244,0.87891 -37.73584,-7.86743 -37.73583,-7.86743 -37.73584,-7.86743 -37.735839,-7.86743 1.2e-5,-0.83618 1.3e-5,-0.83619 1.2e-5,-0.83618 z m 150.845699,31.29883 0.5127,-0.31739 0.51269,-0.31738 0.5127,-0.31739 0.5127,-0.31738 0,0.89111 0,0.89112 0,0.89111 0,0.89112 -0.4883,0.30517 -0.4883,0.30518 -0.48829,0.30517 -0.4883,0.30518 -0.0244,-0.87891 -0.0244,-0.8789 -0.0244,-0.87891 z m 2.05079,-5.07813 -33.68869,-6.77377 -33.6887,-6.77377 -33.68869,-6.77376 -33.688695,-6.77377 -4.535429,0.21859 -4.535428,0.21859 -4.535429,0.2186 -4.535428,0.21859 37.711429,7.82471 37.71142,7.8247 37.71143,7.82471 37.71142,7.82471 0.5127,-0.31739 0.51269,-0.31738 0.5127,-0.31739 0.5127,-0.31738 0,-0.95215 0,-0.95215 0,-0.95214 z m -145.060552,-21.2422 0,12.03955 0,12.03955 0,12.03956 0,12.03955 27.687012,7.39795 27.68701,7.39794 27.68702,7.39795 27.68701,7.39795 1.0433,-0.23562 1.09745,-0.19588 1.15257,-0.15787 1.20863,-0.12157 3.90185,-0.32813 3.90186,-0.32812 3.90185,-0.32813 3.90186,-0.32812 11.06083,-4.7176 5.61872,-10.32582 0.93568,-13.7333 -2.98828,-14.94007 -0.18684,-0.67495 -0.13229,-0.65228 -0.0787,-0.66933 -0.026,-0.7261 0,-0.16797 0,-0.16797 0,-0.16796 0,-0.16797 -0.48828,0.30517 -0.48829,0.30518 -0.48828,0.30517 -0.48828,0.30518 -35.77686,-7.45899 -35.77685,-7.45898 -35.77686,-7.45899 z m 35.949222,100.33008 0.64209,21.02197 0.64209,21.02197 0.64209,21.02198 0.64209,21.02197 0.15967,0.0723 0.15966,0.0723 0.15967,0.0723 0.15967,0.0723 4.05859,-0.43506 4.05859,-0.43506 4.0586,-0.43505 4.05859,-0.43506 1.10889,-18.69238 1.10888,-18.69238 1.10889,-18.69239 1.10889,-18.69238 -5.96924,-1.9668 -5.96924,-1.9668 -5.96923,-1.96679 z m -9.79883,-3.22656 1.41943,21.07373 1.41943,21.07373 1.41944,21.07373 1.41943,21.07373 1.67236,0.75488 1.67237,0.75488 1.67236,0.75489 1.67237,0.75488 -0.64209,-21.02197 -0.64209,-21.02198 -0.64209,-21.02197 -0.64209,-21.02197 -2.44971,-0.80664 -2.44971,-0.80664 -2.4497,-0.80664 z m 87.35402,28.78062 0.45249,0.14909 0.45249,0.14908 0.45249,0.14909 0.45249,0.14909 1.35049,-0.12824 1.3505,-0.12825 1.35049,-0.12824 1.3505,-0.12824 -0.0175,25.11261 -0.0175,25.11261 -0.0175,25.11262 -0.0175,25.11261 -1.54723,-0.67555 -1.54724,-0.67556 -1.54723,-0.67555 -1.54723,-0.67555 -0.23828,-24.45791 -0.23828,-24.4579 -0.23827,-24.45791 z m 7.21194,0.0834 3.55152,-0.33725 3.55152,-0.33725 3.55152,-0.33725 3.55152,-0.33725 -0.71865,25.14469 -0.71865,25.14468 -0.71864,25.14469 -0.71865,25.14469 -2.85035,0.30517 -2.85035,0.30518 -2.85034,0.30517 -2.85035,0.30518 0.0175,-25.11261 0.0175,-25.11262 0.0175,-25.11261 z m -16.10482,93.44929 -1.41442,-0.61756 -1.41441,-0.61757 -1.41442,-0.61756 -1.41441,-0.61756 -0.28991,-24.05967 -0.2899,-24.05967 -0.2899,-24.05966 -0.28991,-24.05967 1.66422,0.54833 1.66421,0.54833 1.66422,0.54834 1.66422,0.54833 0.0401,24.1289 0.0401,24.12889 0.0401,24.1289 z m 0,0 2.44786,-0.32516 2.44786,-0.32516 2.44786,-0.32515 2.44786,-0.32516 -0.22464,-23.05801 -0.22464,-23.05801 -0.22464,-23.05801 -0.22464,-23.05801 -2.26332,-0.74573 -2.26333,-0.74573 -2.26332,-0.74573 -2.26332,-0.74573 0.0401,24.1289 0.0401,24.12889 0.0401,24.1289 z m -5.66427,-3.03595 -1.24121,0.15723 -1.24121,0.15722 -1.24121,0.15723 -1.24121,0.15723 6.80176,2.96924 6.80176,2.96923 6.80175,2.96924 6.80176,2.96924 3.95312,-0.50049 3.95313,-0.50049 3.95312,-0.50048 3.95313,-0.50049 -1.23535,-0.53418 -1.23535,-0.53418 -1.23535,-0.53418 -1.23535,-0.53418 -0.003,0.1123 -0.003,0.11231 -0.003,0.1123 -0.003,0.11231 -2.8501,0.30517 -2.8501,0.30518 -2.85009,0.30517 -2.8501,0.30518 -1.54736,-0.67578 -1.54736,-0.67578 -1.54737,-0.67578 -1.54736,-0.67578 -0.0137,-1.3999 -0.0137,-1.39991 -0.0137,-1.3999 -0.0137,-1.3999 -2.44775,0.32519 -2.44775,0.3252 -2.44776,0.32519 -2.44775,0.3252 -1.41455,-0.61719 -1.41455,-0.61719 -1.41456,-0.61718 -1.41455,-0.61719 -0.002,-0.1416 -0.001,-0.14161 -0.001,-0.1416 -10e-4,-0.1416 4e-5,0 5e-5,0 4e-5,0 z m -4.96484,0.62891 -1.05308,0.72499 -1.05309,0.72499 -1.05308,0.72499 -1.05308,0.72499 7.54519,3.29384 7.54519,3.29385 7.54519,3.29384 7.54519,3.29385 0.30965,-1.0496 0.30965,-1.0496 0.30965,-1.04959 0.30965,-1.0496 -6.80176,-2.96924 -6.80176,-2.96924 -6.80175,-2.96923 z m 25.96843,16.07534 5.39099,-0.68253 5.39098,-0.68253 5.39099,-0.68253 5.39099,-0.68253 -1.12821,-0.86756 -1.12822,-0.86755 -1.12821,-0.86756 -1.12821,-0.86755 -3.95312,0.50049 -3.95313,0.50048 -3.95312,0.50049 -3.95313,0.50049 -0.30965,1.0496 -0.30965,1.04959 -0.30965,1.0496 z m 0,0 0,1.03279 0,1.03279 0,1.03279 0,1.03279 -7.54519,-3.29778 -7.54519,-3.29777 -7.54519,-3.29778 -7.54519,-3.29777 0,-1.02886 0,-1.02886 0,-1.02886 0,-1.02886 7.54519,3.29384 7.54519,3.29385 7.54519,3.29384 z m 0,4.13116 0,-1.03279 0,-1.03279 0,-1.03279 0,-1.03279 5.39099,-0.68253 5.39098,-0.68253 5.39099,-0.68253 5.39099,-0.68253 0,1.18249 0,1.1825 0,1.18249 0,1.1825 -0.34037,0.0431 -0.34037,0.0431 -0.34038,0.0431 -0.34037,0.0431 0,3.38403 0,3.38403 0,3.38403 0,3.38403 -0.28076,0.14648 -0.28076,0.14649 -0.28077,0.14648 -0.28076,0.14649 0,0.49535 0,0.49536 0,0.49535 0,0.49536 -4.58173,0.58007 -4.58174,0.58007 -4.58173,0.58008 -4.58173,0.58007 0,-4.14003 0,-4.14003 0,-4.14002 0,-4.14003 -0.18812,0.0238 -0.18812,0.0238 -0.18812,0.0238 z M 170.75,512.00195 l 0,2.51562 0,2.51563 0,2.51562 0,2.51563 1.63726,-0.0531 1.63962,-0.0544 1.65158,-0.0504 1.6731,-0.0412 0.98477,0.68587 0.32691,0.68646 -0.0472,0.68535 -0.13753,0.68256 -1.93213,0.16601 -1.93213,0.16602 -1.93213,0.16601 -1.93213,0.16602 0,0.32129 0,0.32129 0,0.32129 0,0.32129 3.90295,-0.28597 3.6449,-0.40066 3.54286,-0.44602 3.59679,-0.42204 0.46499,0.70328 0.14202,0.74093 -0.0755,0.73757 -0.18771,0.69322 -2.8497,0.59172 -2.99075,0.57697 -2.74631,0.53462 -2.11637,0.46466 0.87158,0.38086 0.87159,0.38086 0.87158,0.38086 0.87158,0.38086 0.27246,-0.0329 0.26407,-0.0514 0.26533,-0.0766 0.27627,-0.10865 3.05516,-1.21113 3.33461,-0.78244 3.53377,-0.47707 3.65263,-0.29499 0.40147,0.46572 0.23776,0.62943 0.0353,0.83185 -0.20581,1.073 -1.47304,0.31855 -1.5018,0.27902 -1.41282,0.40212 -1.20609,0.68781 -0.56411,0.4444 -0.56798,0.39891 -0.57175,0.35519 -0.57546,0.31322 3.60937,1.57568 3.60938,1.57568 3.60937,1.57569 3.60938,1.57568 0,-4.14014 0,-4.14013 0,-4.14014 0,-4.14013 -0.18799,0.0239 -0.18799,0.0239 -0.18798,0.0239 -0.18799,0.0239 -7.1875,-3.1416 -7.1875,-3.14161 -7.1875,-3.1416 z m 73.77148,-249.42578 -0.0956,0.20718 -0.096,0.20641 -0.0959,0.20665 -0.0952,0.20789 5e-4,0 5e-4,0 5e-4,0 5e-4,0 0.0948,-0.20772 0.0953,-0.20683 0.0955,-0.20659 0.0953,-0.20699 -1e-5,0 -2e-5,0 -1e-5,0 z m 71.27735,-229.236326 -29.32715,45.431152 -29.32715,45.431154 -29.32715,45.43115 -29.32715,45.43115 8.59503,0.64252 8.33031,1.61994 8.0732,2.52289 7.82373,3.35137 5.76629,2.379 5.89066,1.40417 6.08367,0.17517 6.34532,-1.30795 0.6626,0.15478 0.66259,0.15479 0.6626,0.15478 0.6626,0.15479 0.40918,3.00537 0.40918,3.00537 0.40918,3.00538 0.40918,3.00537 -3.48914,6.17233 -3.299,6.17748 -3.10415,6.20423 -2.90459,6.2526 28.95508,-1.11719 28.95508,-1.11719 28.95507,-1.11718 28.95508,-1.11719 -11.89599,-36.97314 -11.896,-36.97315 -11.896,-36.97315 -11.89599,-36.97314 0.12914,-0.84834 0.76101,-0.6896 1.15139,-0.48898 1.30026,-0.24652 0.7511,-0.0142 0.66559,0.0972 0.52804,0.2178 0.33847,0.34763 14.11768,37.23926 14.11767,37.23926 14.11767,37.23925 14.11768,37.23926 40.81299,-1.57471 40.81299,-1.5747 40.81299,-1.57471 40.81299,-1.57471 11.56966,-3.26734 11.01894,-4.05592 10.44729,-4.8689 9.85473,-5.70627 20.02982,-14.09222 17.68685,-15.10829 15.42325,-16.26342 13.23899,-17.55756 4.30294,-10.93491 -1.97338,-9.61357 -8.10984,-7.18356 -14.10644,-3.64491 -52.21387,-4.23096 -52.21386,-4.23095 -52.21387,-4.23096 L 421,122.75 l -17.49321,-3.44343 -17.28368,-8.79988 -11.46554,-15.867682 -0.0388,-24.64682 0.19922,-0.751465 0.19921,-0.751465 0.19922,-0.751465 0.19922,-0.751465 0.49078,-8.855954 -3.80789,-10.027236 -10.15909,-8.55488 -18.56286,-4.438883 -6.91943,-0.442383 -6.91944,-0.442382 -6.91943,-0.442383 z m -0.86133,-3.027344 -30.0459,46.19873 -30.0459,46.19873 -30.04589,46.19873 -30.0459,46.19873 0.94615,-0.0288 0.943,-0.0163 0.93983,-0.004 0.93664,0.008 29.31982,-45.43164 29.31983,-45.43165 29.31983,-45.431642 29.31982,-45.431644 -0.21533,-0.756836 -0.21534,-0.756836 -0.21533,-0.756836 z m 0,0 0.21533,0.756836 0.21533,0.756836 0.21534,0.756836 0.21533,0.756836 6.91943,0.442383 6.91943,0.442383 6.91944,0.442382 6.91943,0.442383 18.56286,4.438883 10.15909,8.55488 3.80789,10.027236 -0.49078,8.855954 -0.19922,0.751465 -0.19922,0.751465 -0.19921,0.751465 -0.19922,0.751465 0.0388,24.64682 11.46554,15.867682 17.28368,8.79988 L 421,122.75 l 52.21387,4.23096 52.21386,4.23095 52.21387,4.23096 52.21387,4.23096 5.88068,0.86065 5.07851,1.4358 4.27079,1.95505 3.45752,2.41842 0.002,-0.001 10e-4,-0.001 10e-4,-0.002 0.002,-0.001 -3.10602,-2.99195 -4.15492,-2.3392 -5.15384,-1.64922 -6.1028,-0.92197 -52.75785,-4.3901 -52.75785,-4.3901 L 471.75785,125.2651 419,120.875 407.32779,118.71938 390.03179,111.5037 376.15739,96.64555 374.75,71.5625 l 0.29687,-0.96875 0.29688,-0.96875 0.29687,-0.96875 0.29688,-0.96875 -0.0146,-14.198606 -7.63848,-10.922741 -12.21429,-7.257576 -13.74201,-3.203108 -6.84766,-0.448242 -6.84765,-0.448242 -6.84765,-0.448243 z m -1.39258,-4.802734 -30.63574,47.458496 -30.63575,47.458498 -30.63574,47.45849 -30.63574,47.4585 0.9427,-0.0775 0.93949,-0.0652 0.93639,-0.0529 0.93338,-0.0407 29.1499,-44.82129 29.1499,-44.82129 29.14991,-44.821286 29.1499,-44.821288 0.71289,-2.056641 0.71289,-2.05664 0.71289,-2.056641 0.71289,-2.056641 -0.16504,-0.521484 -0.16504,-0.521484 -0.16504,-0.521485 z m -5.9e-4,6.55e-4 26.77366,0.579571 26.77365,0.579572 26.77366,0.579571 26.77366,0.579572 0.2217,0.575631 0.2217,0.575631 0.2217,0.575632 0.2217,0.575631 -26.83004,-0.63372 -26.83003,-0.633721 -26.83003,-0.63372 -26.83004,-0.63372 -0.16532,-0.521482 -0.16533,-0.521483 -0.16532,-0.521483 z m 54.49669,17.966141 0.31146,0.272436 0.30428,0.275156 0.29719,0.277727 0.29019,0.28015 -0.2901,-0.280049 -0.2973,-0.27782 -0.30438,-0.275252 z m -53.83594,-15.880859 -0.71289,2.056641 -0.71289,2.056641 -0.71289,2.05664 -0.71289,2.056641 0.89599,-1.377441 0.896,-1.377442 0.896,-1.377441 0.89599,-1.377442 6.84766,0.448242 6.84765,0.448243 6.84765,0.448242 6.84766,0.448242 13.74202,3.203108 12.21429,7.257576 7.63847,10.922741 0.0146,14.198606 -0.29688,0.96875 -0.29687,0.96875 -0.29688,0.96875 -0.29687,0.96875 -1.2399,6.702407 -0.24244,6.075887 0.64913,5.480197 1.43477,4.915337 11.54346,-16.151367 11.54346,-16.151367 11.54345,-16.151368 11.54346,-16.151367 -26.83008,-0.633789 -26.83008,-0.633789 -26.83007,-0.633789 z m 0,0 -0.7124,2.056152 -0.7124,2.056153 -0.71241,2.056152 -0.7124,2.056152 0.89551,-1.376953 0.8955,-1.376953 0.89551,-1.376953 0.89551,-1.376953 6.84766,0.448242 6.84765,0.448243 6.84765,0.448242 6.84766,0.448242 4.39242,0.56372 4.44769,1.010061 4.40264,1.442409 4.25725,1.860763 11.91797,0.285645 11.91797,0.285644 11.91797,0.285645 L 407.5,38.125 l 3.50635,-1.998535 3.50634,-1.998536 3.50635,-1.998535 3.50635,-1.998535 -26.83008,-0.633789 -26.83008,-0.633789 -26.83007,-0.633789 z M 407.5,38.125 l 3.50635,-1.998535 3.50634,-1.998536 3.50635,-1.998535 3.50635,-1.998535 -11.55146,16.135876 -11.55147,16.135876 -11.55146,16.135876 -11.55146,16.135876 -0.70291,-2.062921 -0.51234,-2.062922 -0.38254,-2.062921 -0.31351,-2.062921 8.52294,-12.07442 8.52294,-12.074419 8.52294,-12.07442 z m -230.14878,483.7397 0.98477,0.68584 0.32691,0.68639 -0.0472,0.68528 -0.13753,0.68253 -3.34219,0.28726 -3.34218,0.28726 -3.34219,0.28727 -3.34218,0.28726 -2.99932,0.17803 -2.9234,0.006 -2.34853,-0.21872 -1.27469,-0.49541 0.34811,-1.31718 1.18492,-1.03509 1.65584,-0.65445 1.76088,-0.17526 4.39349,0.11909 4.18501,-0.048 4.10526,-0.12771 z m 8.08628,3.1353 -3.75181,0.44277 -3.69806,0.46667 -3.82468,0.41038 -4.1317,0.27393 -0.50781,0.0312 -0.50782,0.0312 -0.50781,0.0312 -0.50781,0.0312 -2.26515,0.61876 -1.15943,1.00295 -0.40027,1.05148 0.0123,0.76431 2.53678,0.72253 2.64822,0.1458 2.68853,-0.29617 2.65772,-0.60336 2.07786,-0.47221 2.84043,-0.55451 3.1469,-0.60366 2.99731,-0.61962 0.18771,-0.69323 0.0755,-0.73759 -0.14202,-0.74094 z m 7.78126,3.53125 -3.65266,0.2951 -3.53383,0.47731 -3.33468,0.78268 -3.05519,1.21123 -0.31231,0.12236 -0.29819,0.0832 -0.30062,0.0523 -0.31963,0.0297 -1.04545,0.35187 -0.95529,0.75593 -0.67502,1.0401 -0.20463,1.20441 3.29493,0.78633 3.19214,0.10589 3.08922,-0.7699 2.98621,-1.84107 1.20609,-0.68781 1.41282,-0.40211 1.5018,-0.27903 1.47304,-0.31855 0.20581,-1.073 -0.0353,-0.83185 -0.23776,-0.62943 z m -17.8125,-10.0625 0,0.86377 0,0.86377 0,0.86377 0,0.86377 0.48578,-0.0153 0.48279,-0.016 0.48483,-0.015 0.49191,-0.0122 0.98477,0.68587 0.32691,0.68646 -0.0472,0.68535 -0.13753,0.68256 -0.76807,0.0659 -0.76806,0.0659 -0.76807,0.0659 -0.76807,0.0659 0,0.32959 0,0.32959 0,0.32959 0,0.32959 0.87177,-0.0909 0.86507,-0.0939 0.85652,-0.0977 0.84609,-0.10232 0.007,-1.45508 0.007,-1.45508 0.007,-1.45507 0.007,-1.45508 -0.86719,-0.37842 -0.86718,-0.37842 -0.86719,-0.37841 z m 7.84766,3.42578 0,0.84082 0,0.84082 0,0.84082 0,0.84082 0.54198,-0.0662 0.54212,-0.0661 0.54597,-0.0644 0.55352,-0.0611 0.46499,0.70328 0.14202,0.74093 -0.0755,0.73757 -0.18771,0.69322 -0.60007,0.1301 -0.62688,0.13035 -0.64523,0.1305 -0.65516,0.13053 0,0.38525 0,0.38526 0,0.38525 0,0.38526 0.78395,-0.20552 0.79754,-0.18482 0.81051,-0.16495 0.82284,-0.14588 0,-1.48438 0,-1.48437 0,-1.48438 0,-1.48437 -0.80371,-0.35108 -0.80371,-0.35107 -0.80371,-0.35108 z m 7.88476,3.44141 0.004,0.84033 0.004,0.84033 0.004,0.84034 0.004,0.84033 0.51462,-0.0431 0.51419,-0.0436 0.51541,-0.0418 0.51828,-0.0375 0.40147,0.46572 0.23776,0.62943 0.0353,0.83185 -0.20581,1.073 -0.61177,0.15092 -0.62829,0.12804 -0.63668,0.11649 -0.63693,0.11627 0.003,0.71582 0.003,0.71582 0.003,0.71582 0.003,0.71582 0.74219,0.32031 0.74219,0.32031 0.74218,0.32032 0.74219,0.32031 0,-2.3833 0,-2.3833 0,-2.3833 0,-2.3833 -0.75439,-0.32959 -0.7544,-0.32959 -0.75439,-0.32959 -0.7544,-0.32959 -1e-5,0 -1e-5,0 -2e-5,0 z m 44.70605,-107.6369 -4.73008,-1.49048 -4.73007,-1.49048 -4.73008,-1.49047 -4.73008,-1.49048 4.73008,-0.44916 4.73008,-0.44917 4.73007,-0.44916 4.73008,-0.44916 0,1.93964 0,1.93964 0,1.93964 z m -16.70995,30.66815 -1.521,3.32715 -1.52099,3.32714 -1.521,3.32715 -1.521,3.32715 -0.0278,0.96289 -0.0278,0.96289 -0.0278,0.96289 -0.0278,0.96289 1.53858,-3.36621 1.53857,-3.36621 1.53858,-3.36621 1.53857,-3.36621 0.0102,-0.92383 0.0103,-0.92383 0.0102,-0.92382 0.0103,-0.92383 10e-6,0 0,0 1e-5,0 z m 14.39648,-31.49414 -3.21484,7.03271 -3.21484,7.03272 -3.21485,7.03271 -3.21484,7.03272 -0.0102,0.92383 -0.0103,0.92382 -0.0102,0.92383 -0.0103,0.92383 3.56592,-7.80078 3.56592,-7.80079 3.56591,-7.80078 3.56592,-7.80078 -0.34082,-0.15576 -0.34082,-0.15576 -0.34082,-0.15576 -0.34082,-0.15576 0,0 -1e-5,0 0,0 z m -13.49805,86.79492 -0.38379,0.84033 -0.38378,0.84033 -0.38379,0.84034 -0.38379,0.84033 -0.0234,2.15771 -0.0234,2.15772 -0.0234,2.15771 -0.0234,2.15772 0.37158,0.28613 0.37158,0.28613 0.37158,0.28614 0.37158,0.28613 0.0357,-3.28418 0.0356,-3.28418 0.0357,-3.28418 0.0356,-3.28418 -1e-5,0 -1e-5,0 -2e-5,0 z m -0.50976,-91.11133 -0.24609,22.69385 -0.2461,22.69384 -0.24609,22.69385 -0.2461,22.69385 0.38379,-0.84033 0.38379,-0.84034 0.38379,-0.84033 0.38379,-0.84033 0.23633,-21.73584 0.23633,-21.73584 0.23632,-21.73584 0.23633,-21.73584 -0.37402,-0.11768 -0.37402,-0.11767 -0.37403,-0.11768 z m 35.74609,10.36719 -10.30469,22.5581 -10.30468,22.55811 -10.30469,22.5581 -10.30469,22.55811 0.34424,0.14844 0.34424,0.14843 0.34423,0.14844 0.34424,0.14844 10.16406,-22.25049 10.16407,-22.25049 10.16406,-22.25048 10.16406,-22.25049 -0.18083,-0.49315 -0.19794,-0.46571 -0.21217,-0.44234 z m -129.63672,64.13086 -2.30887,1.09342 -2.01174,2.32252 -1.52624,3.25468 -0.85237,3.88992 0.0251,4.13047 0.93683,3.37303 1.68977,2.27411 2.28388,0.83372 2.46727,-0.83368 2.18998,-2.2741 1.67873,-3.37304 0.93355,-4.13051 0.10144,-1.4869 -0.0207,-1.45013 -0.14163,-1.39225 -0.26137,-1.31329 -0.0869,0.36474 -0.0869,0.36475 -0.0869,0.36474 -0.0869,0.36475 0.13088,0.99975 0.0601,1.0372 -0.011,1.06463 -0.0823,1.08201 -0.84614,3.74296 -1.52135,3.05646 -1.98459,2.06057 -2.23581,0.75525 -2.06954,-0.75546 -1.53124,-2.06061 -0.84901,-3.05639 -0.0229,-3.74278 0.75884,-3.47848 1.35567,-2.92369 1.78962,-2.10836 2.06071,-1.03243 0.045,-0.2532 0.0427,-0.25393 0.0394,-0.25476 0.035,-0.25569 -1e-5,0 -1e-5,0 -1e-5,0 z m -15.73828,-2.08594 -0.007,0.003 -0.007,0.003 -0.007,0.003 -0.007,0.003 0.007,-0.003 0.007,-0.003 0.007,-0.003 z m 9.05859,1.34961 -2.46704,0.83337 -2.18986,2.27358 -1.67879,3.37245 -0.93384,4.12997 0.0251,4.13047 0.93683,3.37303 1.68977,2.27411 2.28388,0.83372 1.6582,0.15723 1.65821,0.15722 1.6582,0.15723 1.6582,0.15723 -2.04595,-1.11831 -1.48151,-2.32659 -0.79738,-3.24233 0.006,-3.86551 0.85287,-3.88759 1.52591,-3.25261 2.01083,-2.32117 2.30766,-1.09331 0.003,-0.0268 0.003,-0.0269 0.003,-0.0269 0.003,-0.0268 -1.51514,-0.14355 -1.51513,-0.14356 -1.51514,-0.14355 -1.51514,-0.14355 -0.15566,-0.026 -0.15675,-0.0188 -0.15778,-0.0115 -0.15872,-0.004 10e-6,10e-6 0,1e-5 1e-5,2e-5 z m -9.05859,-1.34961 -0.007,0.003 -0.007,0.003 -0.007,0.003 -0.007,0.003 0.007,-0.003 0.007,-0.003 0.007,-0.003 z m 15.59176,16.23828 0.0294,0.0201 0.0289,0.0211 0.029,0.0205 0.0299,0.0185 -0.0299,-0.0185 -0.029,-0.0205 -0.0289,-0.021 z m -0.45117,-0.36914 0.0309,0.0324 0.0309,0.0324 0.0312,0.0318 0.032,0.0304 -0.0321,-0.0304 -0.0311,-0.0317 -0.0308,-0.0324 z m -0.36914,-0.46875 0.027,0.0419 0.0276,0.0414 0.0281,0.0408 0.0286,0.04 -0.0287,-0.0401 -0.028,-0.0407 -0.0275,-0.0413 z m -0.28711,-0.56641 0.0214,0.0532 0.022,0.0525 0.0228,0.0519 0.0237,0.0513 -0.0237,-0.0514 -0.0227,-0.0518 -0.022,-0.0525 z m -0.1875,-0.63085 0.0133,0.0606 0.0151,0.0596 0.016,0.0591 0.0161,0.059 -0.0161,-0.0591 -0.016,-0.059 -0.0151,-0.0595 z m -0.0742,-0.69532 0.002,0.0658 0.005,0.0649 0.006,0.0645 0.006,0.0646 -0.006,-0.0647 -0.006,-0.0644 -0.005,-0.0648 z m 0.0508,-0.72265 -0.006,0.0478 -0.003,0.0472 -0.003,0.0471 -0.004,0.0474 0.004,-0.0474 0.003,-0.0471 0.003,-0.0472 z m -0.4082,-3.6211 -0.4784,0.71672 -0.3891,0.84102 -0.28738,0.93275 -0.17325,0.99193 0.0106,1.76222 0.39962,1.43911 0.72087,0.97027 0.97437,0.35575 0.36655,-0.0448 0.36727,-0.13086 0.36266,-0.21443 0.35274,-0.29549 -1.88716,-0.77027 -1.01376,-1.08425 -0.3255,-1.34938 0.17759,-1.56563 0.19575,-0.64113 0.20418,-0.63902 0.20977,-0.63761 z m -13.86524,-9.16406 -0.007,0.003 -0.007,0.003 -0.007,0.003 -0.007,0.003 0.007,-0.003 0.007,-0.003 0.007,-0.003 z m 10.93945,7.72266 -0.46581,1.1531 -0.37967,1.21628 -0.28895,1.26254 -0.19369,1.2919 -0.0862,1.16826 -0.003,1.1465 0.0797,1.11217 0.16194,1.06526 1.21973,0.009 1.21973,0.009 1.21972,0.009 1.21973,0.009 -0.97437,-0.35575 -0.72087,-0.97027 -0.39962,-1.43911 -0.0106,-1.76222 0.17325,-0.99193 0.28738,-0.93275 0.3891,-0.84102 0.4784,-0.71672 0.0954,-0.29023 0.0935,-0.29071 0.0933,-0.29076 0.0947,-0.29041 -0.82568,-0.0698 -0.82569,-0.0698 -0.82568,-0.0698 -0.82569,-0.0698 0,-10e-6 0,-1e-5 0,-10e-6 z m -10.93945,-7.72266 -0.007,0.003 -0.007,0.003 -0.007,0.003 -0.007,0.003 0.007,-0.003 0.007,-0.003 0.007,-0.003 z m 0,0 -0.007,0.003 -0.007,0.003 -0.007,0.003 -0.007,0.003 0.007,-0.003 0.007,-0.003 0.007,-0.003 z m -2.26758,-0.11523 -2.1027,1.34633 -1.79674,2.34396 -1.34849,3.0955 -0.75793,3.60092 0.0251,4.13047 0.93683,3.37303 1.68977,2.27411 2.28388,0.83372 1.38281,0.22461 1.38282,0.22461 1.38281,0.22461 1.38281,0.22461 -1.88881,-1.27208 -1.34974,-2.33947 -0.71239,-3.14552 0.0232,-3.6902 0.21725,-1.44124 0.3246,-1.40764 0.42673,-1.35478 0.5236,-1.28266 0.003,-1.20508 0.003,-1.20508 0.003,-1.20508 0.003,-1.20508 -0.43799,-0.24561 -0.43799,-0.2456 -0.43799,-0.24561 -0.43799,-0.2456 0.004,0.002 0.004,10e-4 0.004,0.002 0.004,0.002 -0.0789,-0.0369 -0.0771,-0.04 -0.0753,-0.043 -0.0734,-0.046 -1e-5,-4e-5 -1e-5,-3e-5 -1e-5,-4e-5 z m 7.71289,3.28906 -0.0432,0.0461 -0.0431,0.0466 -0.0429,0.0471 -0.0427,0.0476 0.0427,-0.0476 0.0429,-0.0471 0.0431,-0.0466 z m 0.57227,-0.53906 -0.0353,0.0312 -0.0352,0.0316 -0.0351,0.0319 -0.035,0.0322 0.035,-0.0322 0.0351,-0.0319 0.0352,-0.0316 z m -3.67773,-0.16602 -0.0176,1.24853 -0.0176,1.24854 -0.0176,1.24853 -0.0176,1.24854 -0.68504,0.45489 -0.63901,0.0887 -0.60639,-0.17233 -0.58714,-0.3283 10e-4,-0.41553 0.002,-0.41553 10e-4,-0.41552 0.002,-0.41553 -0.52382,1.2836 -0.4268,1.35577 -0.32453,1.40864 -0.21703,1.44222 0.0251,4.13047 0.93683,3.37303 1.68976,2.27411 2.28388,0.83372 0.30687,-0.0166 0.30873,-0.043 0.31001,-0.0694 0.31072,-0.0956 -1.3536,-1.62714 -0.9226,-2.27987 -0.44661,-2.76679 0.0744,-3.08792 0.40504,-2.32346 0.67226,-2.18528 0.91046,-1.97095 1.11967,-1.68046 -0.0152,0.0175 -0.0152,0.0175 -0.0151,0.0176 -0.0151,0.0177 -0.62402,-0.3501 -0.62402,-0.3501 -0.62403,-0.35009 -0.62402,-0.3501 -3e-5,-1e-5 -2e-5,0 -3e-5,-10e-6 z m 4.26171,-0.2793 -0.024,0.0173 -0.0239,0.0175 -0.0239,0.0176 -0.0239,0.0178 0.0239,-0.0178 0.0239,-0.0176 0.0239,-0.0175 z m 0.59766,-0.35351 -0.0112,0.006 -0.0112,0.006 -0.0112,0.006 -0.0112,0.006 0.0112,-0.006 0.0112,-0.006 0.0112,-0.006 z m 11.96775,11.09248 -0.2478,1.09605 -0.4455,0.89505 -0.58114,0.60346 -0.65472,0.22128 -0.60605,-0.22128 -0.44842,-0.60346 -0.24864,-0.89505 -0.007,-1.09605 0.2478,-1.09604 0.44551,-0.89505 0.58113,-0.60345 0.65472,-0.22128 0.60605,0.22128 0.44841,0.60345 0.24864,0.89504 z m -4.6991,-0.91379 -0.0516,2.66483 1.34287,1.67303 1.91809,-0.0981 1.67407,-2.64872 0.70158,-2.94996 0.70159,-2.94996 0.70158,-2.94996 0.70158,-2.94996 0.75167,-1.68025 0.87402,-0.78681 0.72409,-0.22724 0.30187,-0.002 0,-0.67396 0,-0.67396 0,-0.67396 0,-0.67396 -1.61309,0.50823 -1.61308,0.50823 -1.61309,0.50824 -1.61309,0.50823 -0.97227,3.3919 -0.97227,3.3919 -0.97228,3.39191 z m 3.38955,-1.90135 -0.26562,0.004 -0.26563,0.004 -0.26562,0.004 -0.26563,0.004 -0.65469,0.22081 -0.58122,0.60303 -0.44569,0.89472 -0.24808,1.09589 0.007,1.09656 0.24878,0.89538 0.44869,0.60351 0.60641,0.22096 0.26563,-0.004 0.26562,-0.004 0.26563,-0.004 0.26562,-0.004 -0.60641,-0.22096 -0.44869,-0.60351 -0.24878,-0.89538 -0.007,-1.09656 0.24808,-1.09589 0.44569,-0.89472 0.58122,-0.60303 z m -17.85742,-10.11329 -0.007,0.003 -0.007,0.003 -0.007,0.003 -0.007,0.003 0.007,-0.003 0.007,-0.003 0.007,-0.003 z m -3.23828,-1.76172 0,0.53125 0,0.53125 0,0.53125 0,0.53125 0.24106,-0.1431 0.24233,-0.12754 0.24331,-0.11185 0.244,-0.096 -0.0737,-0.0483 -0.0715,-0.0513 -0.0692,-0.0542 -0.0669,-0.0571 -0.26836,-0.29869 -0.20694,-0.34419 -0.14166,-0.38164 z m 0.52148,-1.80664 -0.13047,0.006 -0.13013,0.004 -0.13019,0.004 -0.13069,0.007 0,0.34033 0,0.34033 0,0.34033 0,0.34033 0.0569,-0.36333 0.10728,-0.35528 0.15556,-0.34169 z m 5.06641,-0.0703 0.002,0.11084 0.002,0.11084 0.002,0.11084 0.002,0.11084 1.45703,1.06445 1.45704,1.06445 1.45703,1.06446 1.45703,1.06445 0.32876,-0.54313 0.39854,-0.35399 0.46018,-0.18668 0.51369,-0.0412 1.49219,0.23437 1.49219,0.23438 1.49218,0.23437 1.49219,0.23438 -0.37786,2.79225 -0.70785,2.70976 -0.86813,2.66969 -0.85866,2.67205 -0.17833,1.57513 0.33095,1.35645 1.03002,1.08745 1.91892,0.76808 0.0108,0.002 0.0108,0.002 0.0108,0.002 0.0108,0.002 -0.96587,-0.55071 -0.70356,-1.02378 -0.29854,-1.36154 0.24922,-1.56397 0.97217,-3.3916 0.97217,-3.3916 0.97216,-3.3916 0.97217,-3.3916 -3.95185,-0.73398 -3.97896,-0.62879 -4.0155,-0.46889 -4.0615,-0.25428 -5e-5,-5e-5 -6e-5,-5e-5 -5e-5,-4e-5 z m -4.6543,-0.38867 -0.2334,0.12012 -0.23339,0.12011 -0.2334,0.12012 -0.2334,0.12012 0.13069,-0.007 0.13019,-0.004 0.13013,-0.004 0.13047,-0.006 0.0507,-0.0697 0.0527,-0.0682 0.0547,-0.0666 0.0567,-0.065 0.0477,-0.0491 0.0488,-0.048 0.0499,-0.0468 z m 2.43946,-1.25977 -0.28564,0.14746 -0.28565,0.14746 -0.28564,0.14746 -0.28565,0.14746 0.29514,-0.0439 0.29317,-0.008 0.28808,0.027 0.27986,0.0623 -0.001,-0.002 -0.002,-10e-4 -0.001,-0.002 -0.002,-0.002 -0.002,-0.15527 -0.002,-0.15528 -0.002,-0.15527 -0.002,-0.15527 8e-5,4e-5 9e-5,3e-5 8e-5,4e-5 z m 2.17773,-0.29102 0.009,0.48486 0.009,0.48487 0.009,0.48486 0.009,0.48487 4.0615,0.25428 4.0155,0.46889 3.97896,0.62879 3.95185,0.73398 1.61279,-0.5083 1.6128,-0.50831 1.61279,-0.5083 1.61279,-0.5083 -1.58047,-0.36158 -1.61353,-0.30951 -1.6425,-0.264 -1.6674,-0.22506 0,0.34521 0,0.34522 0,0.34521 0,0.34522 -1.68559,0.46342 -2.3715,0.13561 -3.35711,-0.33529 -4.64244,-0.94929 0,-0.36719 0,-0.36719 0,-0.36718 0,-0.36719 -0.98081,-0.0194 -0.98215,-0.0173 -0.98456,-0.0136 -0.98803,-0.008 0,0 1e-5,0 0,0 z m -1.36848,4.8958 -0.82444,0.62852 -0.93195,0.27638 -0.92708,-0.0872 -0.80983,-0.46221 -0.5316,-0.76607 -0.16834,-0.91583 0.19341,-0.95264 0.55363,-0.8765 0.82445,-0.62852 0.93195,-0.27638 0.92708,0.0872 0.80983,0.46221 0.5316,0.76607 0.16834,0.91583 -0.19341,0.95264 z m 0.0462,-3.51103 0.53192,0.76614 0.16849,0.91602 -0.19344,0.95287 -0.55387,0.87669 -0.44937,0.39868 -0.50952,0.29142 -0.54863,0.17489 -0.5667,0.0491 -0.21743,-0.0119 -0.21249,-0.046 -0.20993,-0.0639 -0.20976,-0.0656 0.43799,0.2456 0.43799,0.24561 0.43799,0.2456 0.43799,0.24561 5e-4,-0.13672 5e-4,-0.13672 5e-4,-0.13671 5e-4,-0.13672 0.72651,-0.25471 0.76842,0.0104 0.66743,0.2927 0.42358,0.59226 -0.005,0.33691 -0.005,0.33692 -0.005,0.33691 -0.005,0.33692 0.62402,0.3501 0.62403,0.35009 0.62402,0.3501 0.62402,0.3501 0.89402,-0.98094 0.94225,-0.74862 0.97235,-0.50445 0.98435,-0.24841 -1.90967,-1.39502 -1.90966,-1.39502 -1.90967,-1.39502 -1.90967,-1.39502 -1e-5,0 -2e-5,0 -10e-6,0 z m -1.21693,4.67331 -0.006,1.75672 -0.006,1.75672 -0.006,1.75672 -0.006,1.75672 0.58737,0.32812 0.6069,0.17192 0.63952,-0.0892 0.68527,-0.45509 0.0221,-1.58547 0.0221,-1.58546 0.0221,-1.58547 0.0221,-1.58546 -0.42349,-0.5923 -0.66723,-0.29276 -0.76822,-0.0104 z m 1.39661,-10.92526 -0.26862,0.0115 -0.27082,0.0515 -0.27308,0.0942 -0.27537,0.13969 0.0151,1.3706 0.0152,1.37061 0.0152,1.3706 0.0151,1.37061 0.002,0.002 0.002,10e-4 0.002,0.002 0.002,0.002 0.23089,0.0811 0.21805,0.10545 0.20355,0.12889 0.18736,0.1514 0.33887,0.24756 0.33886,0.24755 0.33887,0.24756 0.33886,0.24756 0.003,0.002 0.003,0.002 0.003,0.002 0.003,0.002 -0.0327,-1.73828 -0.0327,-1.73829 -0.0327,-1.73828 -0.0327,-1.73828 -0.26171,-0.1197 -0.26331,-0.0914 -0.26496,-0.06 -0.26666,-0.0258 -5e-5,-8e-5 -6e-5,-8e-5 -5e-5,-8e-5 z m -0.0937,-5.95703 0.11524,1.5039 0.11523,1.50391 0.11524,1.5039 0.11523,1.50391 0.17333,0.0416 0.17278,0.0524 0.17209,0.065 0.17125,0.0793 0.0102,0.53467 0.0103,0.53466 0.0102,0.53467 0.0102,0.53467 1.63574,0.87402 1.63575,0.87403 1.63574,0.87402 1.63574,0.87403 0,-2.09912 0,-2.09913 0,-2.09912 0,-2.09912 -1.93359,-0.87305 -1.9336,-0.87304 -1.93359,-0.87305 -1.9336,-0.87304 1e-5,0 0,0 1e-5,0 z m 7.73485,3.49146 0,2.09922 0,2.09922 0,2.09923 0,2.09922 3.92223,-0.4088 3.92224,-0.40879 3.92223,-0.4088 3.92223,-0.40879 0.19888,-2.13237 0.19887,-2.13237 0.19888,-2.13237 0.19887,-2.13237 -4.12111,0.44194 -4.1211,0.44194 -4.12111,0.44195 z m -2.56297,7.02807 0,0.45801 0,0.458 0,0.45801 0,0.45801 4.64244,0.94929 3.35711,0.33529 2.3715,-0.13561 1.68559,-0.46342 0,-0.53418 0,-0.53418 0,-0.53418 0,-0.53418 -2.37353,0.24707 -2.37354,0.24707 -2.37353,0.24707 -2.37354,0.24707 -0.64062,-0.34229 -0.64063,-0.34228 -0.64062,-0.34229 z m 168.69972,79.71546 -2.90424,1.37537 -2.53048,2.9214 -1.9198,4.09394 -1.07216,4.89297 0.0315,5.19556 1.17841,4.24279 2.12549,2.86052 2.8728,1.0487 3.10349,-1.04865 2.75467,-2.8605 2.11161,-4.24282 1.17428,-5.1956 0.1276,-1.87031 -0.026,-1.82406 -0.17816,-1.75126 -0.32876,-1.65193 -0.10933,0.4588 -0.10932,0.45879 -0.10933,0.4588 -0.10933,0.4588 0.16463,1.25755 0.0756,1.30465 -0.0138,1.33915 -0.10347,1.36102 -1.06432,4.70812 -1.91366,3.84461 -2.49633,2.5919 -2.81234,0.95 -2.6032,-0.95026 -1.92607,-2.59197 -1.06794,-3.84451 -0.0288,-4.70789 0.95452,-4.37544 1.70524,-3.6776 2.25109,-2.65201 2.59209,-1.29866 0.0566,-0.31849 0.0537,-0.31941 0.0495,-0.32045 0.0441,-0.32162 -1e-5,0 -10e-6,0 -2e-5,0 z m -19.79656,-2.62382 -0.009,0.004 -0.009,0.004 -0.009,0.004 -0.009,0.004 0.009,-0.004 0.009,-0.004 0.009,-0.004 z m 11.39444,1.69762 -3.10319,1.04826 -2.75453,2.85985 -2.11169,4.24207 -1.17464,5.19492 0.0315,5.19556 1.17841,4.24279 2.12549,2.86052 2.8728,1.0487 2.08579,0.19777 2.08579,0.19777 2.08578,0.19777 2.08579,0.19777 -2.57351,-1.40668 -1.86354,-2.92653 -1.00299,-4.07839 0.008,-4.86227 1.07279,-4.89005 1.91937,-4.09132 2.52935,-2.91971 2.90271,-1.37523 0.004,-0.0337 0.003,-0.0338 0.003,-0.0339 0.004,-0.0337 -1.90583,-0.18057 -1.90583,-0.18057 -1.90583,-0.18057 -1.90583,-0.18057 -0.19579,-0.0326 -0.19718,-0.0236 -0.19847,-0.0145 -0.19964,-0.005 10e-6,1e-5 1e-5,10e-6 10e-6,10e-6 z m -11.39444,-1.69762 -0.009,0.004 -0.009,0.004 -0.009,0.004 -0.009,0.004 0.009,-0.004 0.009,-0.004 0.009,-0.004 z m 19.61222,20.42548 0.0369,0.0252 0.0363,0.0265 0.0365,0.0258 0.0376,0.0233 -0.0376,-0.0232 -0.0366,-0.0258 -0.0363,-0.0265 z m -0.56751,-0.46432 0.0389,0.0407 0.0388,0.0408 0.0393,0.04 0.0403,0.0383 -0.0404,-0.0383 -0.0392,-0.0399 -0.0387,-0.0407 z m -0.46433,-0.58963 0.034,0.0526 0.0347,0.0521 0.0354,0.0513 0.036,0.0503 -0.0361,-0.0504 -0.0352,-0.0512 -0.0346,-0.052 z m -0.36114,-0.71246 0.0269,0.067 0.0277,0.0661 0.0286,0.0653 0.0297,0.0646 -0.0299,-0.0646 -0.0286,-0.0652 -0.0276,-0.066 z m -0.23585,-0.79352 0.0168,0.0762 0.019,0.075 0.0201,0.0743 0.0202,0.0742 -0.0203,-0.0743 -0.0201,-0.0742 -0.019,-0.0748 z m -0.0933,-0.87462 0.003,0.0828 0.006,0.0816 0.008,0.0811 0.007,0.0812 -0.007,-0.0814 -0.008,-0.081 -0.006,-0.0815 z m 0.0639,-0.90899 -0.007,0.0601 -0.004,0.0594 -0.003,0.0592 -0.005,0.0596 0.005,-0.0596 0.003,-0.0592 0.004,-0.0594 z m -0.51345,-4.55484 -0.60177,0.90153 -0.48943,1.05788 -0.36149,1.17328 -0.21792,1.24771 0.0133,2.21663 0.50267,1.81019 0.90676,1.22047 1.22562,0.44748 0.46107,-0.0563 0.46197,-0.1646 0.45618,-0.26973 0.4437,-0.37168 -2.37379,-0.96889 -1.27516,-1.36384 -0.40945,-1.69733 0.22339,-1.96934 0.24623,-0.80645 0.25683,-0.8038 0.26387,-0.80203 z m -17.44054,-11.5271 -0.009,0.004 -0.009,0.004 -0.009,0.004 -0.009,0.004 0.009,-0.004 0.009,-0.004 0.009,-0.004 z m 13.7603,9.71402 -0.58593,1.45044 -0.47756,1.5299 -0.36347,1.5881 -0.24363,1.62504 -0.10842,1.46951 -0.004,1.44214 0.10019,1.39895 0.20369,1.33995 1.53425,0.0111 1.53425,0.0111 1.53424,0.0111 1.53425,0.0111 -1.22562,-0.44748 -0.90676,-1.22047 -0.50267,-1.81019 -0.0133,-2.21663 0.21792,-1.24771 0.36149,-1.17328 0.48943,-1.05788 0.60177,-0.90153 0.12004,-0.36506 0.11763,-0.36567 0.11733,-0.36575 0.11915,-0.36529 -1.0386,-0.0878 -1.03859,-0.0878 -1.0386,-0.0878 -1.0386,-0.0878 0,-2e-5 0,-2e-5 0,-2e-5 z m -13.7603,-9.71402 -0.009,0.004 -0.009,0.004 -0.009,0.004 -0.009,0.004 0.009,-0.004 0.009,-0.004 0.009,-0.004 z m 0,0 -0.009,0.004 -0.009,0.004 -0.009,0.004 -0.009,0.004 0.009,-0.004 0.009,-0.004 0.009,-0.004 z m -2.8523,-0.14495 -2.6449,1.69349 -2.26005,2.94839 -1.69621,3.8937 -0.95337,4.52945 0.0315,5.19556 1.17841,4.24279 2.12549,2.86052 2.8728,1.0487 1.73939,0.28253 1.73938,0.28252 1.73939,0.28253 1.73938,0.28253 -2.37586,-1.6001 -1.69777,-2.94273 -0.89609,-3.95662 0.0292,-4.64175 0.27327,-1.81288 0.4083,-1.77062 0.53676,-1.70412 0.65862,-1.6134 0.004,-1.51582 0.004,-1.51583 0.004,-1.51582 0.004,-1.51582 -0.55093,-0.30894 -0.55093,-0.30894 -0.55093,-0.30893 -0.55093,-0.30894 0.006,0.002 0.005,0.002 0.005,0.002 0.005,0.002 -0.0993,-0.0464 -0.097,-0.0503 -0.0947,-0.0541 -0.0923,-0.0579 10e-6,-1.6e-4 0,-1.6e-4 1e-5,-1.5e-4 z m 9.70174,4.13718 -0.0543,0.058 -0.0541,0.0586 -0.054,0.0593 -0.0538,0.0599 0.0538,-0.0599 0.054,-0.0593 0.0541,-0.0586 z m 0.71984,-0.67806 -0.0444,0.0393 -0.0443,0.0397 -0.0442,0.0401 -0.0441,0.0405 0.0441,-0.0405 0.0442,-0.0401 0.0443,-0.0397 z m -4.62607,-0.20883 -0.0221,1.57048 -0.0221,1.57048 -0.0221,1.57049 -0.0221,1.57048 -0.86168,0.57219 -0.8038,0.11162 -0.76275,-0.21676 -0.73854,-0.41295 0.002,-0.52268 0.002,-0.52268 0.002,-0.52267 0.002,-0.52268 -0.65889,1.6146 -0.53685,1.70537 -0.40822,1.77187 -0.27299,1.81411 0.0315,5.19555 1.1784,4.2428 2.12549,2.86051 2.8728,1.04871 0.386,-0.0208 0.38834,-0.0541 0.38995,-0.0873 0.39084,-0.1203 -1.70264,-2.04672 -1.1605,-2.86775 -0.56177,-3.48024 0.0935,-3.88417 0.50949,-2.92258 0.8456,-2.74879 1.14523,-2.47918 1.40839,-2.11378 -0.0191,0.022 -0.0191,0.0221 -0.019,0.0221 -0.019,0.0222 -0.78494,-0.44038 -0.78493,-0.44037 -0.78494,-0.44038 -0.78493,-0.44037 -1.6e-4,0 -1.6e-4,0 -1.5e-4,0 z m 5.36063,-0.35132 -0.0301,0.0218 -0.0301,0.022 -0.0301,0.0222 -0.0301,0.0224 0.0301,-0.0224 0.0301,-0.0222 0.0301,-0.022 z m 0.75177,-0.44467 -0.0141,0.007 -0.0141,0.007 -0.0141,0.007 -0.0141,0.007 0.0141,-0.007 0.0141,-0.007 0.0141,-0.007 z m 15.05379,13.9528 -0.3117,1.37867 -0.56038,1.12584 -0.731,0.75906 -0.82354,0.27834 -0.76232,-0.27834 -0.56404,-0.75906 -0.31276,-1.12584 -0.008,-1.37867 0.3117,-1.37867 0.56038,-1.12584 0.73099,-0.75907 0.82354,-0.27834 0.76233,0.27834 0.56404,0.75906 0.31276,1.12584 z m -5.91084,-1.14943 -0.0649,3.35198 1.68915,2.10444 2.41269,-0.12346 2.10575,-3.33172 0.88249,-3.71064 0.88249,-3.71063 0.8825,-3.71064 0.88249,-3.71063 0.9455,-2.11352 1.0994,-0.9897 0.9108,-0.28584 0.37971,-0.002 0,-0.84775 0,-0.84775 0,-0.84774 0,-0.84775 -2.02904,0.63928 -2.02904,0.63929 -2.02904,0.63928 -2.02904,0.63929 -1.22298,4.26654 -1.22299,4.26654 -1.22298,4.26654 z m 4.26358,-2.39163 -0.33412,0.005 -0.33412,0.005 -0.33412,0.005 -0.33412,0.005 -0.8235,0.27775 -0.7311,0.75853 -0.56061,1.12544 -0.31205,1.37847 0.008,1.37931 0.31292,1.12627 0.56439,0.75913 0.76278,0.27794 0.33412,-0.005 0.33412,-0.005 0.33412,-0.005 0.33412,-0.005 -0.76278,-0.27793 -0.5644,-0.75914 -0.31292,-1.12626 -0.008,-1.37932 0.31205,-1.37847 0.56062,-1.12544 0.73109,-0.75853 0.82351,-0.27774 0,0 0,-10e-6 0,0 z m -22.46214,-12.72114 -0.009,0.004 -0.009,0.004 -0.009,0.004 -0.009,0.004 0.009,-0.004 0.009,-0.003 0.009,-0.004 z m -4.0733,-2.21599 0,0.66824 0,0.66823 0,0.66824 0,0.66824 0.30322,-0.18 0.30481,-0.16043 0.30605,-0.14069 0.30692,-0.12078 -0.0927,-0.0608 -0.0899,-0.0645 -0.087,-0.0682 -0.0841,-0.0718 -0.33756,-0.37571 -0.26031,-0.43294 -0.17817,-0.48005 z m 0.65595,-2.2725 -0.16412,0.007 -0.16368,0.005 -0.16376,0.006 -0.16439,0.009 0,0.42809 0,0.42808 0,0.42809 0,0.42809 0.0716,-0.45701 0.13494,-0.4469 0.19567,-0.42979 0.25377,-0.40568 0,10e-6 0,0 0,10e-6 z m 6.37283,-0.0884 0.003,0.13942 0.003,0.13942 0.003,0.13942 0.003,0.13942 1.83274,1.33893 1.83275,1.33893 1.83274,1.33894 1.83274,1.33893 0.41353,-0.68318 0.5013,-0.44527 0.57885,-0.23482 0.64615,-0.0518 1.87696,0.29481 1.87697,0.29481 1.87697,0.29481 1.87696,0.29481 -0.4753,3.51227 -0.89038,3.40849 -1.09198,3.3581 -1.08008,3.36107 -0.22431,1.98129 0.41628,1.70623 1.29563,1.36785 2.41373,0.96614 0.0135,0.003 0.0135,0.003 0.0135,0.003 0.0135,0.003 -1.21492,-0.69271 -0.885,-1.28778 -0.37552,-1.71262 0.31349,-1.96726 1.22285,-4.26616 1.22285,-4.26616 1.22286,-4.26615 1.22285,-4.26616 -4.97088,-0.92324 -5.00497,-0.79093 -5.05094,-0.5898 -5.1088,-0.31985 -8e-5,-7e-5 -8e-5,-7e-5 -8e-5,-7e-5 z m -5.85446,-0.48889 -0.29358,0.15109 -0.29358,0.15109 -0.29358,0.15109 -0.29358,0.15109 0.16439,-0.009 0.16376,-0.006 0.16368,-0.005 0.16412,-0.008 0.0638,-0.0876 0.0663,-0.0858 0.0689,-0.0838 0.0713,-0.0818 0.06,-0.0618 0.0614,-0.0603 0.0627,-0.0589 0.0641,-0.0574 0,-1e-5 0,0 0,-10e-6 z m 3.0685,-1.58462 -0.3593,0.18548 -0.3593,0.18549 -0.3593,0.18548 -0.3593,0.18549 0.37125,-0.0552 0.36876,-0.0105 0.36236,0.034 0.35203,0.0784 -0.002,-0.002 -0.002,-0.002 -0.002,-0.002 -0.002,-0.002 -0.003,-0.19531 -0.003,-0.19532 -0.003,-0.19531 -0.003,-0.19531 2.2e-4,1.5e-4 2.3e-4,1.5e-4 2.2e-4,1.6e-4 z m 2.73928,-0.36606 0.0117,0.60989 0.0117,0.60989 0.0117,0.6099 0.0117,0.60989 5.1088,0.31985 5.05094,0.5898 5.00497,0.79093 4.97088,0.92324 2.02867,-0.63937 2.02866,-0.63938 2.02867,-0.63937 2.02867,-0.63937 -1.98801,-0.45482 -2.0296,-0.38932 -2.06604,-0.33207 -2.09735,-0.2831 0,0.43423 0,0.43423 0,0.43424 0,0.43423 -2.12023,0.58292 -2.98302,0.17058 -4.22278,-0.42175 -5.83954,-1.19408 0,-0.46187 0,-0.46187 0,-0.46187 0,-0.46187 -1.23373,-0.0244 -1.2354,-0.0218 -1.23843,-0.0171 -1.24281,-0.0103 -10e-6,0 0,-10e-6 -1e-5,0 z m -1.72135,6.15822 -1.03704,0.79059 -1.17226,0.34765 -1.16614,-0.10968 -1.01865,-0.5814 -0.66869,-0.9636 -0.21176,-1.15199 0.24327,-1.19828 0.69638,-1.10252 1.03704,-0.7906 1.17227,-0.34765 1.16614,0.10968 1.01865,0.5814 0.66869,0.9636 0.21176,1.15199 -0.24327,1.19829 z m 0.0581,-4.41637 0.66907,0.96369 0.21194,1.15223 -0.24332,1.19858 -0.69669,1.10275 -0.56524,0.50149 -0.6409,0.36656 -0.69011,0.21998 -0.71283,0.0617 -0.2735,-0.015 -0.26728,-0.0579 -0.26407,-0.0804 -0.26384,-0.0826 0.55093,0.30894 0.55093,0.30893 0.55093,0.30894 0.55093,0.30894 7.5e-4,-0.17197 7.5e-4,-0.17198 7.5e-4,-0.17197 7.5e-4,-0.17197 0.91385,-0.3204 0.96655,0.0131 0.83955,0.36817 0.5328,0.74499 -0.006,0.42379 -0.006,0.42379 -0.006,0.4238 -0.006,0.42379 0.78493,0.44037 0.78493,0.44037 0.78494,0.44038 0.78493,0.44037 1.12456,-1.23389 1.18521,-0.94165 1.22308,-0.63452 1.23818,-0.31247 -2.4021,-1.75474 -2.40209,-1.75474 -2.4021,-1.75474 -2.40209,-1.75474 -1.5e-4,0 -1.4e-4,0 -1.5e-4,0 z m -1.53073,5.87837 -0.007,2.20971 -0.007,2.2097 -0.007,2.20971 -0.007,2.20971 0.73883,0.41273 0.76338,0.21625 0.80444,-0.11215 0.86197,-0.57243 0.0278,-1.99429 0.0278,-1.9943 0.0278,-1.99429 0.0278,-1.99429 -0.53269,-0.74502 -0.83929,-0.36826 -0.96631,-0.0131 z m 1.75674,-13.74245 -0.33788,0.0144 -0.34067,0.0648 -0.34349,0.11852 -0.34638,0.17571 0.0191,1.72403 0.019,1.72403 0.019,1.72403 0.019,1.72403 0.003,0.002 0.003,0.002 0.003,0.002 0.003,0.002 0.29042,0.10197 0.27429,0.13263 0.25604,0.16213 0.23567,0.19044 0.42624,0.31139 0.42625,0.31139 0.42624,0.3114 0.42625,0.31139 0.004,0.003 0.004,0.003 0.004,0.003 0.004,0.003 -0.0412,-2.18652 -0.0412,-2.18652 -0.0411,-2.18651 -0.0412,-2.18652 -0.3292,-0.15057 -0.3312,-0.11492 -0.33328,-0.0755 -0.33543,-0.0324 -7e-5,-2.2e-4 -7e-5,-2.3e-4 -6e-5,-2.2e-4 z m -0.11793,-7.49311 0.14495,1.8917 0.14495,1.8917 0.14495,1.8917 0.14495,1.8917 0.21802,0.0524 0.21734,0.0659 0.21646,0.0817 0.21541,0.0997 0.0129,0.67254 0.0129,0.67253 0.0129,0.67254 0.0129,0.67254 2.05754,1.0994 2.05753,1.0994 2.05754,1.0994 2.05754,1.0994 0,-2.6404 0,-2.64041 0,-2.6404 0,-2.6404 -2.4322,-1.09817 -2.43219,-1.09817 -2.4322,-1.09816 z m 9.72936,4.39176 0,2.64053 0,2.64053 0,2.64053 0,2.64053 4.93362,-0.51421 4.93362,-0.51421 4.93362,-0.5142 4.93362,-0.51421 0.25016,-2.68222 0.25015,-2.68223 0.25016,-2.68222 0.25016,-2.68222 -5.18378,0.5559 -5.18378,0.5559 -5.18377,0.5559 z m -3.22386,8.84033 0,0.57611 0,0.57611 0,0.57611 0,0.57611 5.83954,1.19408 4.22278,0.42175 2.98302,-0.17058 2.12023,-0.58292 0,-0.67193 0,-0.67192 0,-0.67193 0,-0.67192 -2.98558,0.31078 -2.98557,0.31078 -2.98558,0.31078 -2.98557,0.31078 -0.80582,-0.43055 -0.80582,-0.43055 -0.80581,-0.43054 z m 339.86459,-88.11376 0.0132,0.007 0.0131,0.007 0.0131,0.007 0.0133,0.006 -0.0133,-0.006 -0.0131,-0.007 -0.0131,-0.007 z m -0.32422,-0.23437 0.0155,0.0151 0.0155,0.0149 0.0156,0.0145 0.0159,0.0141 -0.0158,-0.0141 -0.0157,-0.0146 -0.0156,-0.0149 z m -0.27929,-0.36328 0.0177,0.0298 0.0178,0.0291 0.0181,0.0284 0.0186,0.0279 -0.0185,-0.0279 -0.0182,-0.0285 -0.0179,-0.0291 z m -0.21094,-0.47461 0.0148,0.042 0.0156,0.0406 0.016,0.0398 0.0161,0.0397 -0.0161,-0.0397 -0.016,-0.0398 -0.0156,-0.0406 z m -0.14063,-0.59571 0.01,0.0582 0.0112,0.0561 0.0119,0.0551 0.0119,0.0552 -0.0119,-0.0552 -0.0119,-0.0551 -0.0112,-0.0561 z m -0.0566,-0.69921 0.002,0.0723 0.005,0.0696 0.006,0.0685 0.005,0.069 -0.005,-0.0689 -0.005,-0.0686 -0.005,-0.0696 z m 0.0371,-0.81055 -0.006,0.0699 -0.004,0.0673 -0.003,0.0666 -0.003,0.0676 0.004,-0.0676 0.003,-0.0666 0.004,-0.0673 z m 0.69531,-9.23828 -1.58412,0.99729 -1.40206,2.07431 -1.08914,2.89056 -0.64538,3.44604 -0.0571,3.68127 0.57833,3.00637 1.11169,2.0273 1.54291,0.74404 1.69868,-0.74296 1.53547,-2.02705 1.20648,-3.00679 0.71172,-3.68218 0.0755,-0.91885 0.0353,-0.90787 -0.005,-0.89051 -0.0453,-0.86675 -0.20508,0.99414 -0.20507,0.99414 -0.20508,0.99414 -0.20508,0.99414 -0.40118,1.23368 -0.53789,0.86052 -0.61279,0.49457 -0.62587,0.13584 -5e-4,0.002 -5e-4,0.002 -5e-4,0.002 -5e-4,0.002 -1.03743,-0.19797 -1.08107,-0.5603 -0.70589,-1.26369 0.0881,-2.30812 0.51709,-2.05127 0.51709,-2.05127 0.51708,-2.05126 0.51709,-2.05127 2e-5,-6e-5 2e-5,-6e-5 2e-5,-6e-5 z m 0.27927,12.41601 0.0132,0.007 0.0131,0.007 0.0131,0.007 0.0133,0.006 -0.0133,-0.006 -0.0131,-0.007 -0.0131,-0.007 z m -0.32422,-0.23437 0.0155,0.0151 0.0155,0.0149 0.0156,0.0145 0.0159,0.0141 -0.0158,-0.0141 -0.0157,-0.0146 -0.0156,-0.0149 z m -0.27929,-0.36328 0.0177,0.0298 0.0178,0.0291 0.0181,0.0284 0.0186,0.0279 -0.0185,-0.0279 -0.0182,-0.0285 -0.0179,-0.0291 z m -0.21094,-0.47461 0.0148,0.042 0.0156,0.0406 0.016,0.0398 0.0161,0.0397 -0.0161,-0.0397 -0.016,-0.0398 -0.0156,-0.0406 z m -0.14063,-0.59571 0.01,0.0582 0.0112,0.0561 0.0119,0.0551 0.0119,0.0552 -0.0119,-0.0552 -0.0119,-0.0551 -0.0112,-0.0561 z m -0.0566,-0.69921 0.002,0.0723 0.005,0.0696 0.006,0.0685 0.005,0.069 -0.005,-0.0689 -0.005,-0.0686 -0.005,-0.0696 z m 0.0371,-0.81055 -0.006,0.0699 -0.004,0.0673 -0.003,0.0666 -0.003,0.0676 0.004,-0.0676 0.003,-0.0666 0.004,-0.0673 z m 0.48242,-8.39649 -1.40418,0.99544 -1.2334,1.90777 -0.95465,2.59777 -0.56792,3.06543 -0.0522,3.37439 0.53041,2.75538 1.01934,1.85749 1.41458,0.68071 1.5564,-0.68147 1.4068,-1.85767 1.10538,-2.75509 0.65212,-3.37374 0.0472,-0.5303 0.0327,-0.52769 0.0181,-0.5236 0.003,-0.51802 -0.12842,0.62305 -0.12842,0.62304 -0.12841,0.62305 -0.12842,0.62305 -0.40118,1.23368 -0.53789,0.86052 -0.61279,0.49457 -0.62587,0.13584 -5e-4,0.002 -5e-4,0.002 -5e-4,0.002 -5e-4,0.002 -1.03743,-0.19797 -1.08107,-0.5603 -0.70589,-1.26369 0.0881,-2.30812 0.46387,-1.84082 0.46386,-1.84082 0.46386,-1.84082 0.46387,-1.84082 10e-6,-6e-5 10e-6,-6e-5 1e-5,-6e-5 z m -6.95703,-1.92187 -1.69867,0.74297 -1.53547,2.02705 -1.20648,3.00678 -0.71172,3.68218 -0.0571,3.68235 0.57877,3.00686 1.11236,2.02701 1.54368,0.74277 1.7876,0.24219 1.7876,0.24218 1.78759,0.24219 1.7876,0.24219 -1.36347,-1.01354 -0.95872,-2.07593 -0.47927,-2.88081 0.0749,-3.42816 0.64572,-3.4416 1.08832,-2.88685 1.4005,-2.07223 1.58226,-0.99776 0.007,-0.0288 0.007,-0.0288 0.007,-0.0288 0.007,-0.0288 -1.68652,-0.22852 -1.68652,-0.22851 -1.68653,-0.22852 -1.68652,-0.22851 -0.11089,-0.0258 -0.11187,-0.0187 -0.1128,-0.0116 -0.11366,-0.004 0,-1e-5 0,-2e-5 -10e-6,-1e-5 z m -2.3125,-0.34375 -1.69818,0.74424 -1.53487,2.02734 -1.20593,3.0063 -0.71141,3.6811 -0.0572,3.68127 0.57833,3.00638 1.11169,2.0273 1.54292,0.74404 0.23183,-0.0175 0.23389,-0.0463 0.2354,-0.0749 0.23638,-0.10345 -0.97073,-1.40537 -0.6463,-2.05689 -0.28846,-2.54402 0.10276,-2.86677 0.57145,-3.16656 0.95614,-2.7333 1.24411,-2.08806 1.43533,-1.23083 -0.3212,-0.25237 -0.33625,-0.18201 -0.34932,-0.11082 z m -6.70312,-0.85547 -1.69868,0.74296 -1.53547,2.02705 -1.20648,3.00679 -0.71172,3.68218 -0.0571,3.68235 0.57878,3.00687 1.11236,2.02701 1.54368,0.74276 1.56738,0.20019 1.56739,0.2002 1.56738,0.20019 1.56738,0.2002 -1.37008,-1.00509 -0.96412,-2.07527 -0.48257,-2.88616 0.0746,-3.43778 0.71141,-3.6811 1.20593,-3.0063 1.53487,-2.02734 1.69818,-0.74424 -1.56738,-0.2002 -1.56738,-0.20019 -1.56739,-0.2002 -1.56738,-0.20019 -0.1071,-0.0236 -0.108,-0.017 -0.10885,-0.0104 z m 15.623,13.51953 0.0368,0.11534 0.04,0.10944 0.0431,0.10398 0.0461,0.099 -0.0459,-0.099 -0.0432,-0.10415 -0.0401,-0.10948 z m -0.13085,-0.69336 0.0156,0.12956 0.0183,0.12525 0.0214,0.12089 0.0248,0.11649 -0.0247,-0.11634 -0.0213,-0.12116 -0.0183,-0.12547 z m -0.0234,-0.89258 -0.006,0.15898 -0.003,0.15555 5e-4,0.15112 0.005,0.14568 -0.005,-0.14558 -2.5e-4,-0.15123 0.003,-0.15566 z m 0.16211,-1.33398 -0.0518,0.27568 -0.0416,0.26525 -0.0325,0.25602 -0.0245,0.24797 0.0244,-0.24782 0.0325,-0.25605 0.0417,-0.26534 z m -0.88867,-2.59961 -0.54499,0.52035 -0.46875,0.82815 -0.35886,1.05917 -0.2153,1.21342 -0.0227,1.46436 0.23016,1.19576 0.44233,0.80613 0.61386,0.29547 0.29177,-0.0557 0.2927,-0.16541 0.28709,-0.27018 0.27492,-0.37002 -0.74793,-0.40849 -0.58403,-0.73136 -0.27987,-1.17071 0.16457,-1.72655 0.15625,-0.62109 0.15625,-0.6211 0.15625,-0.62109 z m 4.20939,3.68749 -0.18723,0.9687 -0.31738,0.79105 -0.40394,0.53334 -0.44688,0.19557 -0.40605,-0.19557 -0.29258,-0.53334 -0.15222,-0.79105 0.015,-0.9687 0.18723,-0.9687 0.31738,-0.79106 0.40393,-0.53334 0.44689,-0.19557 0.40605,0.19557 0.29259,0.53334 0.15222,0.79106 z m -6.28947,-3.99413 -0.28597,0.94876 -0.23847,0.98918 -0.18865,1.01874 -0.13652,1.03746 -0.0739,0.93017 -0.0289,0.91653 0.0161,0.89504 0.0612,0.86568 0.65771,0.022 0.65772,0.022 0.65771,0.022 0.65772,0.022 -0.61386,-0.29547 -0.44233,-0.80613 -0.23016,-1.19576 0.0227,-1.46436 0.21549,-1.21469 0.35933,-1.06005 0.46938,-0.82844 0.54565,-0.51986 0.0103,-0.0415 0.0102,-0.0415 0.0103,-0.0415 0.0103,-0.0415 -0.53076,-0.0347 -0.53076,-0.0347 -0.53076,-0.0347 -0.53076,-0.0347 0,0 10e-6,-10e-6 0,0 z m 4.73828,1.39258 -0.44686,0.19548 -0.40393,0.53323 -0.3174,0.79095 -0.18728,0.96862 -0.015,0.96862 0.15226,0.79094 0.2926,0.53323 0.40604,0.19549 0.14502,0.0229 0.14502,0.023 0.14501,0.0229 0.14502,0.0229 -0.35193,-0.27528 -0.24668,-0.54688 -0.12266,-0.7525 0.0201,-0.89214 0.18728,-0.96862 0.3174,-0.79095 0.40393,-0.53323 0.44686,-0.19548 -0.14453,-0.023 -0.14453,-0.0229 -0.14453,-0.0229 -0.14453,-0.023 -0.0337,-0.009 -0.034,-0.007 -0.0344,-0.004 -0.0347,-0.002 0,0 0,10e-6 0,0 z m -1.77045,1.51312 0.7292,-2.83947 0.7292,-2.83948 0.72921,-2.83947 0.7292,-2.83948 1.08276,-0.3425 1.08276,-0.34251 1.08275,-0.3425 1.08276,-0.34251 0,0.5911 0,0.5911 0,0.59109 0,0.5911 -0.50663,0.094 -0.46105,0.20034 -0.39152,0.36254 -0.29808,0.58058 -0.5469,2.65165 -0.5469,2.65165 -0.54691,2.65165 -0.5469,2.65165 -1.06075,2.23003 -1.36328,0.45732 -1.002,-1.25648 z m -17.09088,-13.52093 -0.26221,1.13916 -0.2622,1.13916 -0.26221,1.13916 -0.26221,1.13916 0.57428,-0.66353 0.58984,-0.49471 0.59665,-0.31989 0.5947,-0.13906 0.0459,-0.11133 0.0459,-0.11132 0.0459,-0.11133 0.0459,-0.11133 4.232,0.37005 4.10773,0.49432 4.01501,0.58704 3.95386,0.64819 -0.55518,2.20313 -0.55517,2.20312 -0.55518,2.20313 -0.55517,2.20312 -0.0881,2.30812 0.70589,1.26369 1.08107,0.5603 1.03743,0.19797 5e-4,-0.002 5e-4,-0.002 5e-4,-0.003 5e-4,-0.002 -0.68341,-0.30394 -0.50413,-0.8074 -0.21651,-1.30301 0.17944,-1.79073 0.729,-2.83984 0.729,-2.83985 0.72901,-2.83985 0.729,-2.83984 -4.86901,-0.69246 -4.92154,-0.63242 -5.02822,-0.51051 -5.18904,-0.32671 -10e-6,6e-5 -10e-6,6e-5 -10e-6,6e-5 z m 4.20898,-1.61524 -1.05224,0.40381 -1.05225,0.40381 -1.05225,0.40381 -1.05224,0.40381 5.18904,0.32671 5.02822,0.51051 4.92154,0.63242 4.86901,0.69246 1.08252,-0.34229 1.08252,-0.34228 1.08252,-0.34229 1.08252,-0.34228 -1.68743,-0.25971 -1.68755,-0.25361 -1.68756,-0.24744 -1.68746,-0.24119 0,0.21191 0,0.21192 0,0.21191 0,0.21192 -2.25951,0.22366 -2.2657,0.0389 -2.27653,-0.29699 -2.29201,-0.78389 0,-0.2793 0,-0.2793 0,-0.27929 0,-0.2793 -1.07122,-0.094 -1.07126,-0.0858 -1.07131,-0.0755 z m -2.22461,-8.80664 2.77734,0.64844 2.77735,0.64843 2.77734,0.64844 2.77735,0.64844 -0.0391,1.875 -0.0391,1.875 -0.0391,1.875 -0.0391,1.875 -2.57813,-0.66406 -2.57812,-0.66407 -2.57813,-0.66406 -2.57812,-0.66406 -0.16016,-1.85938 -0.16016,-1.85937 -0.16015,-1.85938 z m 11.10938,2.59375 3.00781,-0.33594 3.00781,-0.33594 3.00782,-0.33593 3.00781,-0.33594 -0.21314,1.86698 -0.21315,1.86698 -0.21314,1.86698 -0.21314,1.86698 -2.83373,0.34396 -2.83374,0.34396 -2.83373,0.34395 -2.83373,0.34396 0.0391,-1.875 0.0391,-1.875 0.0391,-1.875 z m 4.49388,6.93557 0,0.38272 0,0.38272 0,0.38273 0,0.38272 -2.25932,0.22378 -2.26527,0.0391 -2.27611,-0.29673 -2.29182,-0.78377 0,-0.32328 0,-0.32328 0,-0.32328 0,-0.32328 1.1106,0.28606 1.1106,0.28606 1.11059,0.28607 1.1106,0.28606 1.16253,-0.14111 1.16253,-0.14111 1.16254,-0.1411 z m -106.76164,-301.37597 0.43089,1.12695 0.43089,1.12695 0.4309,1.12695 0.43089,1.12695 -2.59641,-0.0994 -2.59641,-0.0994 -2.5964,-0.0994 -2.59641,-0.0994 -0.40604,-1.08 -0.40603,-1.07999 -0.40603,-1.08 -0.40604,-1.08 2.57155,0.0525 2.57155,0.0525 2.57155,0.0525 z m -8.66206,4.11006 2.59641,0.0994 2.5964,0.0994 2.59641,0.0994 2.59641,0.0994 -22.24072,25.75415 -22.24072,25.75416 -22.24071,25.75416 -22.24072,25.75415 -2.56326,0.0442 -2.56327,0.0442 -2.56326,0.0442 -2.56326,0.0442 22.20757,-25.89778 22.20757,-25.89778 22.20758,-25.89779 z m 0,0 -0.40604,-1.08 -0.40603,-1.07999 -0.40603,-1.08 -0.40604,-1.08 -22.12714,25.45165 -22.12713,25.45164 -22.12714,25.45165 -22.12713,25.45164 0.3256,1.52613 0.3256,1.52614 0.32559,1.52613 0.3256,1.52614 22.20757,-25.89778 22.20757,-25.89778 22.20758,-25.89779 z m -43.09447,57.08515 0.18766,0.48493 -0.05,0.54237 -0.26844,0.5347 -0.4676,0.46193 -0.58632,0.29706 -0.59222,0.0851 -0.53025,-0.12448 -0.40044,-0.33168 -0.18765,-0.48493 0.05,-0.54237 0.26843,-0.5347 0.4676,-0.46192 0.58632,-0.29706 0.59222,-0.0851 0.53025,0.12448 z m -34.5594,40.17651 0.18765,0.48493 -0.05,0.54237 -0.26843,0.5347 -0.4676,0.46192 -0.58632,0.29706 -0.59222,0.0851 -0.53025,-0.12448 -0.40044,-0.33168 -0.18765,-0.48493 0.05,-0.54237 0.26843,-0.5347 0.4676,-0.46192 0.58632,-0.29706 0.59222,-0.0851 0.53025,0.12448 z m 77.50511,-90.10487 0.18766,0.48493 -0.05,0.54237 -0.26844,0.5347 -0.4676,0.46193 -0.58633,0.29706 -0.59221,0.0851 -0.53026,-0.12449 -0.40044,-0.33168 -0.18765,-0.48493 0.05,-0.54237 0.26843,-0.5347 0.4676,-0.46192 0.58633,-0.29706 0.59221,-0.0851 0.53026,0.12448 z m -153.20503,-91.214119 -0.44194,-1.082757 -0.44194,-1.082757 -0.44194,-1.082758 -0.44194,-1.082757 3.09849,0.01406 3.0985,0.01405 3.09849,0.01405 3.09849,0.01405 0.61382,1.112897 0.61382,1.112897 0.61381,1.112896 0.61382,1.112897 -3.27037,-0.04419 -3.27037,-0.0442 -3.27037,-0.04419 z m 4.1e-4,9.5e-4 -27.72852,40.753419 -27.72851,40.75342 -27.72852,40.75341 -27.72852,40.75342 2.23678,0.9489 2.25153,0.81887 2.27056,0.67081 2.29387,0.50478 18.88721,-27.24072 18.8872,-27.24073 18.88721,-27.24072 18.88721,-27.24072 -0.5542,-1.72217 -0.5542,-1.72216 -0.5542,-1.72217 -0.5542,-1.72217 0.12914,-0.84834 0.76101,-0.6896 1.15139,-0.48898 1.30026,-0.24652 0.7511,-0.0142 0.66559,0.0972 0.52804,0.2178 0.33847,0.34763 0.22021,0.58154 0.22022,0.58155 0.22021,0.58154 0.22022,0.58154 8.77637,-12.657714 8.77636,-12.657715 8.77637,-12.657714 8.77637,-12.657715 -3.27051,-0.04395 -3.27051,-0.04395 -3.2705,-0.04395 z M 341.88672,56.5 312.7959,97.53418 l -29.09082,41.03418 -29.09082,41.03418 -29.09082,41.03418 1.45971,0.60097 1.45157,0.62772 1.4432,0.65449 1.43458,0.68127 0.38708,0.18226 0.38772,0.17423 0.38801,0.17079 0.38797,0.17194 27.69775,-40.76709 27.69776,-40.76709 27.69775,-40.76709 27.69776,-40.767089 -0.4419,-1.083008 -0.44189,-1.083008 -0.44189,-1.083007 z m -23.41992,52.16406 -1.30026,0.24652 -1.15139,0.48898 -0.76101,0.6896 -0.12914,0.84834 14.59814,45.37109 14.59815,45.3711 14.59815,45.3711 14.59814,45.37109 3.88139,-0.2103 4.11436,-0.2469 4.17704,-0.28735 4.0694,-0.33163 -17.25244,-45.5083 -17.25245,-45.5083 -17.25244,-45.5083 -17.25244,-45.5083 -0.33847,-0.34761 -0.52804,-0.2178 -0.66559,-0.0972 z m -93.85742,197.08595 -29.98939,-5.90397 -29.9894,-5.90397 -29.9894,-5.90397 -29.98939,-5.90397 0,-1.29838 0,-1.29839 0,-1.29838 0,-1.29839 30.94756,5.7399 30.94755,5.73989 30.94756,5.7399 30.94755,5.73989 -0.95816,0.0494 -0.95816,0.0494 -0.95816,0.0494 -0.95816,0.0494 0,1.41309 0,1.41309 0,1.41308 z m -87.9668,-29.96095 -2.09619,0.0757 -2.0962,0.0757 -2.09619,0.0757 -2.09619,0.0757 22.73242,4.16455 22.73242,4.16455 22.73243,4.16455 22.73242,4.16455 -0.70313,0.17188 -0.70312,0.17187 -0.70313,0.17188 -0.70312,0.17187 0,0.6875 0,0.6875 0,0.6875 0,0.6875 -23.34375,-4.30469 L 169.6875,287.57819 146.34375,283.2735 123,278.96875 l 0,-0.67187 0,-0.67188 0,-0.67187 0,-0.67188 -4.58691,0.16504 -4.58692,0.16504 -4.58691,0.16504 -4.58692,0.16504 30.94727,5.73975 30.94726,5.73974 30.94727,5.73975 30.94727,5.73974 9.35205,-0.48193 9.35205,-0.48193 9.35205,-0.48194 9.35205,-0.48193 -7.35254,-1.32764 -7.35254,-1.32763 -7.35254,-1.32764 -7.35254,-1.32764 -0.15671,0.58705 -0.1563,0.58713 -0.15457,0.58842 -0.15156,0.59091 -0.67041,-0.29883 -0.67041,-0.29882 -0.67041,-0.29883 -0.67041,-0.29883 -24.14453,-4.44092 -24.14453,-4.44091 -24.14453,-4.44092 -24.14453,-4.44092 0.0202,-0.0674 0.0207,-0.0665 0.0208,-0.0664 0.0203,-0.0673 1e-5,0 1e-5,0 0,0 z m 79.73242,20.39844 0,-0.6875 0,-0.6875 0,-0.6875 0,-0.6875 0.70312,-0.17188 0.70313,-0.17187 0.70312,-0.17188 0.70313,-0.17187 0,0.67187 0,0.67188 0,0.67187 0,0.67188 -0.70313,0.1875 -0.70312,0.1875 -0.70313,0.1875 z m 0,0 0,-0.6875 0,-0.6875 0,-0.6875 0,-0.6875 -23.34375,-4.35156 -23.34375,-4.35157 -23.34375,-4.35156 L 123,276.03125 l 0,0.73437 0,0.73438 0,0.73437 0,0.73438 23.34375,4.30469 23.34375,4.30468 23.34375,4.30469 z m 0,-2.75 0.70312,-0.17188 0.70313,-0.17187 0.70312,-0.17188 0.70313,-0.17187 -23.4961,-4.30469 -23.49609,-4.30469 -23.4961,-4.30468 -23.49609,-4.30469 -0.55078,0.125 -0.55078,0.125 -0.55078,0.125 -0.55078,0.125 23.34375,4.35156 23.34375,4.35156 23.34375,4.35157 z m 16.76313,0.3825 4.97893,-15.70898 5.82331,-14.27352 6.44018,-13.22485 6.82954,-12.56293 -0.45299,-3.0494 -0.45299,-3.0494 -0.45299,-3.04939 -0.45299,-3.0494 -6.3453,1.30776 -6.08363,-0.17562 -5.89062,-1.4046 -5.76627,-2.3792 -12.14939,-4.8271 -12.74958,-2.77072 -13.38158,-0.43022 -14.04536,2.19441 -6.92269,1.50203 -6.34422,0.66877 -5.5886,-0.54922 -4.65579,-2.15191 -1.72357,2.2539 -1.72358,2.25391 -1.72357,2.2539 -1.72357,2.25391 -1.96171,14.79866 -2.98872,12.58665 -3.51871,11.44514 -3.55167,11.37413 24.14453,4.44082 24.14453,4.44082 24.14454,4.44083 z m 22.26031,-67.96844 0.45312,3.04932 0.45313,3.04931 0.45312,3.04932 0.45313,3.04932 -6.82959,12.56312 -6.44029,13.22526 -5.82341,14.27393 -4.97898,15.70917 0.67041,0.29883 0.67041,0.29882 0.67041,0.29883 0.67041,0.29883 4.40646,-14.8389 5.48667,-14.20776 6.50642,-13.81529 7.46569,-13.66148 -0.40918,-3.00537 -0.40918,-3.00538 -0.40918,-3.00537 -0.40918,-3.00537 -0.6626,-0.15479 -0.6626,-0.15478 -0.66259,-0.15479 z"
         inkscape:connector-curvature="0" />
    </g>
  </g>
</svg>
